<?xml version="1.0" encoding="UTF-8" standalone="no"?>
<!-- Created with Inkscape (http://www.inkscape.org/) -->

<svg
   xmlns:dc="http://purl.org/dc/elements/1.1/"
   xmlns:cc="http://creativecommons.org/ns#"
   xmlns:rdf="http://www.w3.org/1999/02/22-rdf-syntax-ns#"
   xmlns:svg="http://www.w3.org/2000/svg"
   xmlns="http://www.w3.org/2000/svg"
   xmlns:sodipodi="http://sodipodi.sourceforge.net/DTD/sodipodi-0.dtd"
   xmlns:inkscape="http://www.inkscape.org/namespaces/inkscape"
   version="1.0"
   width="580"
   height="580"
   id="svg2"
   sodipodi:version="0.32"
   inkscape:version="0.91 r13725"
   sodipodi:docname="chalet.svg"
   inkscape:output_extension="org.inkscape.output.svg.inkscape">
  <metadata
     id="metadata2975">
    <rdf:RDF>
      <cc:Work
         rdf:about="">
        <dc:format>image/svg+xml</dc:format>
        <dc:type
           rdf:resource="http://purl.org/dc/dcmitype/StillImage" />
        <cc:license
           rdf:resource="http://web.resource.org/cc/PublicDomain" />
        <dc:language>en</dc:language>
        <dc:title />
      </cc:Work>
    </rdf:RDF>
  </metadata>
  <sodipodi:namedview
     inkscape:window-height="1017"
     inkscape:window-width="1920"
     inkscape:pageshadow="2"
     inkscape:pageopacity="0.0"
     guidetolerance="10.0"
     gridtolerance="10.0"
     objecttolerance="10.0"
     borderopacity="1.0"
     bordercolor="#666666"
     pagecolor="#ffffff"
     id="base"
     inkscape:zoom="0.92167714"
     inkscape:cx="117.06131"
     inkscape:cy="349.09227"
     inkscape:window-x="-8"
     inkscape:window-y="-8"
     inkscape:current-layer="svg2"
     showgrid="false"
     inkscape:window-maximized="1" />
  <defs
     id="defs4">
    <inkscape:perspective
       sodipodi:type="inkscape:persp3d"
       inkscape:vp_x="0 : 290 : 1"
       inkscape:vp_y="0 : 1000 : 0"
       inkscape:vp_z="580 : 290 : 1"
       inkscape:persp3d-origin="290 : 193.33333 : 1"
       id="perspective2441" />
    <inkscape:perspective
       id="perspective3452"
       inkscape:persp3d-origin="30 : 20 : 1"
       inkscape:vp_z="60 : 30 : 1"
       inkscape:vp_y="0 : 1000 : 0"
       inkscape:vp_x="0 : 30 : 1"
       sodipodi:type="inkscape:persp3d" />
    <symbol
       viewBox="244.5 110 489 219.9"
       id="symbol-university">
      <path
         id="path4460"
         d="M79,43l57,119c0,0,21-96,104-96s124,106,124,106l43-133l82-17L0,17L79,43z" />
      <path
         id="path4462"
         d="M94,176l-21,39"
         stroke-width="20"
         stroke="#000000"
         fill="none" />
      <path
         id="path4464"
         d="M300,19c0,10.5-22.6,19-50.5,19S199,29.5,199,19s22.6-19,50.5-19S300,8.5,300,19z" />
      <path
         id="path4466"
         d="M112,216l-16-38L64,88c0,0-9-8-4-35s16-24,16-24"
         stroke-width="20"
         stroke="#000000"
         ill="none" />
    </symbol>
    <inkscape:perspective
       id="perspective4471"
       inkscape:persp3d-origin="372.04724 : 350.78739 : 1"
       inkscape:vp_z="744.09448 : 526.18109 : 1"
       inkscape:vp_y="0 : 1000 : 0"
       inkscape:vp_x="0 : 526.18109 : 1"
       sodipodi:type="inkscape:persp3d" />
    <inkscape:perspective
       id="perspective4668"
       inkscape:persp3d-origin="6 : 4 : 1"
       inkscape:vp_z="12 : 6 : 1"
       inkscape:vp_y="0 : 1000 : 0"
       inkscape:vp_x="0 : 6 : 1"
       sodipodi:type="inkscape:persp3d" />
    <inkscape:perspective
       id="perspective4904"
       inkscape:persp3d-origin="16 : 10.666667 : 1"
       inkscape:vp_z="32 : 16 : 1"
       inkscape:vp_y="0 : 1000 : 0"
       inkscape:vp_x="0 : 16 : 1"
       sodipodi:type="inkscape:persp3d" />
    <inkscape:perspective
       id="perspective3728"
       inkscape:persp3d-origin="0.5 : 0.33333333 : 1"
       inkscape:vp_z="1 : 0.5 : 1"
       inkscape:vp_y="0 : 1000 : 0"
       inkscape:vp_x="0 : 0.5 : 1"
       sodipodi:type="inkscape:persp3d" />
    <inkscape:perspective
       id="perspective3959"
       inkscape:persp3d-origin="0.5 : 0.33333333 : 1"
       inkscape:vp_z="1 : 0.5 : 1"
       inkscape:vp_y="0 : 1000 : 0"
       inkscape:vp_x="0 : 0.5 : 1"
       sodipodi:type="inkscape:persp3d" />
  </defs>
  <g
     id="layer3"
     inkscape:label="Layout"
     style="display:none;stroke:#757575;stroke-opacity:1"
     transform="matrix(48.14969,0,0,48.14969,-536.27327,-33.306752)">
    <rect
       style="fill:none;stroke:#757575;stroke-width:0.10000000000000001;stroke-miterlimit:4;stroke-dasharray:none;stroke-opacity:1;display:inline"
       id="rect4134"
       width="10"
       height="10"
       x="1"
       y="1" />
    <rect
       style="fill:none;stroke:#757575;stroke-width:0.10000000000000001;stroke-miterlimit:4;stroke-dasharray:none;stroke-opacity:1;display:inline"
       id="rect4136"
       width="8"
       height="8"
       x="2"
       y="2" />
  </g>
  <path
     inkscape:connector-curvature="0"
     style="fill:none;stroke:#ffffff;stroke-width:16.41123199;stroke-linecap:butt;stroke-linejoin:miter;stroke-miterlimit:4;stroke-dasharray:none;stroke-opacity:1"
     d="m 393.67597,212.73143 c -22.60621,47.92953 -45.25319,95.83979 -68.00405,143.70085 -12.60271,-17.39413 -25.2881,-34.72804 -38.05354,-52.00309 -39.11955,62.61111 -77.85915,125.45937 -117.23774,187.90861 122.87897,1.04217 245.7585,2.01795 368.6373,3.0771 -46.30032,-98.51045 -92.87536,-196.89159 -139.3929,-295.2996 -1.98304,4.20537 -3.96604,8.41075 -5.94907,12.61613 z"
     id="path3734" />
  <path
     inkscape:connector-curvature="0"
     style="color:#000000;font-style:normal;font-variant:normal;font-weight:normal;font-stretch:normal;font-size:medium;line-height:normal;font-family:'Bitstream Charter';-inkscape-font-specification:'Bitstream Charter';text-indent:0;text-align:start;text-decoration:none;text-decoration-line:none;letter-spacing:normal;word-spacing:normal;text-transform:none;direction:ltr;block-progression:tb;writing-mode:lr-tb;text-anchor:start;display:inline;overflow:visible;visibility:visible;fill:#000000;fill-opacity:1;fill-rule:nonzero;stroke:none;stroke-width:5;marker:none;enable-background:accumulate"
     d="m 399.62231,180.90483 -7.38505,15.69324 -5.94907,12.61614 c -20.6536,43.7896 -41.39031,87.56068 -62.15754,131.28985 -9.94882,-13.67275 -19.90161,-27.32667 -29.9505,-40.92551 l -7.17992,-9.74416 -6.35935,10.25702 c -39.13714,62.63924 -77.88892,125.5066 -117.23774,187.9086 l -7.79533,12.411 14.66754,0.1024 c 122.88192,1.04221 245.7622,2.01799 368.6373,3.07711 l 13.12898,0.1024 -5.64136,-11.79557 C 500.09345,393.37373 453.52353,295.0032 407.00737,196.59807 l -7.38506,-15.69324 z m 0,138.98262 c 2.48519,0.007 4.93962,1.21532 6.46193,3.17968 7.33939,9.24471 14.48281,16.80271 17.33436,17.94978 1.42578,0.57371 1.07763,0.66578 2.56426,-0.30754 1.48662,-0.97348 4.4883,-4.11961 7.79533,-10.56473 1.39433,-2.68386 4.36089,-4.45286 7.38505,-4.41052 3.02414,0.0423 5.96375,1.89386 7.28249,4.61566 l 66.87577,141.54687 c 2.43717,5.01006 -1.91673,11.86877 -7.48763,11.79558 l -302.1718,-2.56442 c -2.8853,-0.0397 -5.68833,-1.67615 -7.07735,-4.20538 -1.38888,-2.52923 -1.30961,-5.85218 0.20514,-8.30819 l 59.49072,-95.49285 c 2.58116,-4.16468 9.21894,-4.96762 12.7187,-1.53856 5.3028,5.25747 9.89394,8.04016 15.38553,8.41076 5.4916,0.3706 13.18531,-1.68658 24.51428,-10.05188 3.47449,-2.61976 9.04052,-1.78239 11.59043,1.74369 l 5.23108,7.17992 21.53975,-45.54117 c 1.25972,-2.75269 4.15453,-4.71511 7.17991,-4.8208 3.02538,-0.10569 6.03871,1.64999 7.48762,4.30795 2.13163,3.86819 4.25504,6.02391 5.84651,6.97477 1.59146,0.95071 2.61975,1.12066 4.51308,0.71799 3.78667,-0.80533 11.08861,-5.99482 18.66778,-17.02665 1.47553,-2.16917 4.04389,-3.55221 6.66706,-3.58996 z"
     id="path3744" />
  <path
     style="font-size:12px;fill:#000000;fill-opacity:1;fill-rule:evenodd;stroke:#ffffff;stroke-width:0.85235143;stroke-opacity:1"
     d="M 184.57113,66.176498 22.127529,206.5523 l 32.488502,0 0,210.56359 97.466389,0 0,-107.00635 67.20514,0 2.2e-4,107.00635 95.23845,0 0,-210.56359 32.4887,0 -162.4438,-140.375802 0,0 0,0 z"
     id="path645"
     sodipodi:nodetypes="ccccccccccccc" />
</svg>
