<?xml version="1.0" encoding="UTF-8" standalone="no"?>
<!-- Created with Inkscape (http://www.inkscape.org/) -->

<svg
   xmlns:dc="http://purl.org/dc/elements/1.1/"
   xmlns:cc="http://creativecommons.org/ns#"
   xmlns:rdf="http://www.w3.org/1999/02/22-rdf-syntax-ns#"
   xmlns:svg="http://www.w3.org/2000/svg"
   xmlns="http://www.w3.org/2000/svg"
   version="1.0"
   width="100%"
   height="100%"
   viewBox="0 0 260 344"
   id="svg2"
   xml:space="preserve"><metadata
     id="metadata139"><rdf:RDF><cc:Work
         rdf:about=""><dc:format>image/svg+xml</dc:format><dc:type
           rdf:resource="http://purl.org/dc/dcmitype/StillImage" /><dc:title></dc:title></cc:Work></rdf:RDF></metadata><defs
     id="defs137" /><path
     d="m 115.5,246.4 c -0.1,-4.9 -0.2,-8.6 -0.2,-11 0,-14.4 1.6,-26.9 4.8,-37.3 2.3,-7.9 6.1,-15.8 11.3,-23.9 3.8,-5.8 10.7,-14.4 20.6,-25.6 9.9,-11.2 16.3,-20.2 19.3,-26.8 3,-6.7 4.5,-13.9 4.5,-21.8 0,-14.3 -4.3,-26.8 -13,-37.6 -8.7,-11 -19.4,-16.4 -32,-16.4 -12.2,0 -22.4,4.9 -30.5,14.7 -8.2,9.8 -13.5,25.1 -16.1,45.9 L 54.8,102.1 C 57.4,74.2 65.3,52.9 78.4,38 91.5,23.2 108.8,15.8 130.3,15.8 c 22.8,0 41,8 54.5,23.9 13.5,15.9 20.3,35.2 20.3,57.7 0,13.1 -2.4,25.1 -7.2,36.1 -4.8,11 -14.1,24.4 -28,40.2 -9.3,10.6 -15.4,18.4 -18.3,23.5 -2.9,5 -5,10.8 -6.4,17.3 -1.4,6.5 -2.2,17.1 -2.4,31.8 h -27.3 z m -1.7,73.6 v -41.8 h 32.6 V 320 h -32.6 z"
     id="path43"
     style="fill:#000000;fill-opacity:1" /></svg>