<?xml version="1.0" encoding="utf-8"?>
<!-- Generator: Adobe Illustrator 19.1.0, SVG Export Plug-In . SVG Version: 6.00 Build 0)  -->
<svg version="1.1" id="Calque_1" xmlns="http://www.w3.org/2000/svg" xmlns:xlink="http://www.w3.org/1999/xlink" x="0px" y="0px"
	 viewBox="178.1 -383.5 467.7 467.7" style="enable-background:new 178.1 -383.5 467.7 467.7;" xml:space="preserve">
<style type="text/css">
	.st0{display:none;fill:#E8E8E8;stroke:#1D1D1B;stroke-miterlimit:10;}
	.st1{display:none;}
	.st2{display:inline;}
	.st3{fill:#FF9800;}
	.st4{display:inline;opacity:0.2;}
	.st5{display:none;fill:#FFFFFF;}
	.st6{fill:#FFFFFF;stroke:#000000;stroke-width:2;stroke-miterlimit:10;}
	.st7{display:none;opacity:0.79;}
	.st8{fill:#2196F3;}
</style>
<g>
</g>
<rect x="156" y="-412.6" class="st0" width="512" height="512"/>
<g class="st1">
	<g class="st2">
		<path class="st3" d="M413-412.6L413-412.6c-0.3,0-0.5,0-0.8,0s-0.5,0-0.8,0l0,0c-118.7,0.6-214.9,97-214.9,215.9
			c0,86.1,56.1,164.6,123.3,195.1c39.6,18,74.5,74.5,74.5,74.5c4.9,4.9,11.3,7.4,17.7,7.5l0,0c0.1,0,0.2,0,0.2,0c0.1,0,0.2,0,0.2,0
			l0,0c6.4-0.1,12.8-2.6,17.7-7.5c0,0,34.9-56.5,74.5-74.5c67.2-30.5,123.3-109,123.3-195.1C627.9-315.6,531.8-412,413-412.6z"/>
	</g>
	<g class="st4">
		<path d="M413-412.6L413-412.6c-0.3,0-0.5,0-0.8,0s-0.5,0-0.8,0l0,0c-118.7,0.6-214.9,97-214.9,215.9
			c0,86.1,56.1,164.6,123.3,195.1c39.6,18,74.5,74.5,74.5,74.5c4.9,4.9,11.3,7.4,17.7,7.5l0,0c0.1,0,0.2,0,0.2,0c0.1,0,0.2,0,0.2,0
			l0,0c6.4-0.1,12.8-2.6,17.7-7.5c0,0,34.9-56.5,74.5-74.5c67.2-30.5,123.3-109,123.3-195.1C627.9-315.6,531.8-412,413-412.6z"/>
	</g>
</g>
<circle class="st5" cx="412" cy="-196.7" r="187.9"/>
<g>
	<path class="st6" d="M560.8-233.2c0,28.7-14.2,71.6-14.2,71.6c-19.2,63-134.7,244-134.7,244s-115.4-181-134.7-244
		c0,0-14.2-42.9-14.2-71.6c0-82.2,66.7-148.9,148.9-148.9C494.2-382.1,560.8-315.4,560.8-233.2z"/>
</g>
<g class="st7">
	<g class="st2">
		<path class="st8" d="M412-385.9c83.9,0,151.9,68,151.9,151.9c0,29.3-14.4,73-14.4,73c-17.6,57.7-114.2,212.1-134,243.4
			c-0.8,1.3-2.2,2-3.5,2c-1.4,0-2.7-0.7-3.5-2C388.7,51.1,292.2-103.4,274.6-161c0,0-14.4-43.7-14.4-73
			C260.1-317.8,328.1-385.9,412-385.9 M412-411.9c-24,0-47.3,4.7-69.3,14c-21.2,9-40.2,21.8-56.5,38.1
			c-16.3,16.3-29.2,35.4-38.1,56.6c-9.3,22-14,45.3-14,69.3c0,32,13.7,74.9,15.7,80.9C268.1-93.4,359.1,52.9,386.5,96.4
			c5.6,8.8,15.1,14.1,25.5,14.1s20-5.3,25.5-14.1C465,52.9,555.9-93.5,574.3-153c2-6.1,15.7-48.9,15.7-80.9c0-24-4.7-47.3-14-69.3
			c-9-21.2-21.8-40.2-38.1-56.6c-16.3-16.3-35.4-29.2-56.6-38.1C459.3-407.1,436-411.9,412-411.9L412-411.9z"/>
	</g>
</g>
</svg>
