<?xml version="1.0" encoding="UTF-8" standalone="no"?>
<!-- Created with Inkscape (http://www.inkscape.org/) -->

<svg
   xmlns:dc="http://purl.org/dc/elements/1.1/"
   xmlns:cc="http://creativecommons.org/ns#"
   xmlns:rdf="http://www.w3.org/1999/02/22-rdf-syntax-ns#"
   xmlns:svg="http://www.w3.org/2000/svg"
   xmlns="http://www.w3.org/2000/svg"
   version="1.1"
   width="100%"
   height="100%"
   viewBox="0 0 232 313"
   id="Calque_1"
   xml:space="preserve"><metadata
     id="metadata218"><rdf:RDF><cc:Work
         rdf:about=""><dc:format>image/svg+xml</dc:format><dc:type
           rdf:resource="http://purl.org/dc/dcmitype/StillImage" /><dc:title></dc:title></cc:Work></rdf:RDF></metadata><defs
     id="defs216" /><path
     d="m 211,113 c 0,-8.7 -7.3,-15.8 -16,-15.8 -8.7,0 -16,7.1 -16,15.8 v 50.2 c 0,-0.3 -1,-0.6 -1,-0.9 v -61.6 c 0,-8.7 -7.3,-15.8 -16,-15.8 -8.7,0 -16,7.1 -16,15.8 v 50.2 c 0,-0.1 0,-0.2 -1,-0.2 V 88.4 c 0,-8.7 -6.8,-15.8 -15.5,-15.8 -8.7,0 -15.5,7.1 -15.5,15.8 v 59.1 l -1.4,-0.2 -0.4,-27.5 c 0,-0.4 -0.1,-0.9 -0.1,-1.3 V 28.8 C 112.1,20.1 105.3,13 96.6,13 87.9,13 81,20.1 81,28.8 v 89.7 c 0,0.3 -0.2,0.6 -0.1,0.9 -1.9,81.9 -18.6,58.7 -18.6,58.7 0,0 -0.2,-0.1 -0.5,-0.2 L 42.8,133 c -3.4,-8 -12.6,-11.8 -20.7,-8.4 -8,3.4 -11.8,12.6 -8.4,20.6 l 24.4,57.6 c 0.6,1.9 1.3,3.9 2.2,6 19.2,49.3 37,69.2 37,69.2 0,0 0.1,0 0.3,-0.1 13.7,15.2 33.8,24.8 56.4,24.8 40.4,0 73.2,-30.9 74.4,-69.4 l 0.1,0 2.4,-28.9 0,-0.1 c 0.1,-0.5 0.2,-1.1 0.2,-1.6 V 113 z"
     id="XMLID_36_"
     style="fill:#404040;fill-opacity:0.3" /></svg>