<?xml version="1.0" encoding="utf-8"?>
<!-- Generator: Adobe Illustrator 18.1.1, SVG Export Plug-In . SVG Version: 6.00 Build 0)  -->
<svg version="1.0" id="Calque_1" xmlns="http://www.w3.org/2000/svg" xmlns:xlink="http://www.w3.org/1999/xlink" x="0px" y="0px"
	 viewBox="0 0 512 1024" enable-background="new 0 0 512 1024" xml:space="preserve">
<rect display="none" fill="#E8E8E8" stroke="#1D1D1B" stroke-miterlimit="10" width="512" height="512"/>
<path opacity="0.7" fill="#00BCD4" d="M465,862.2c-20.8,71-76.8,127-147.8,147.8c-19.4,5.7-39.9,8.7-61.2,8.7
	c-14.8,0-29.3-1.5-43.3-4.3c-85.5-17.2-152.9-84.6-170.1-170.1c-2.8-14-4.3-28.5-4.3-43.3c0-55.3,20.6-105.8,54.6-144.2
	c5.9-6.7,12.2-13,18.9-18.9l136.7-136.7c4.3-4.3,11.2-4.3,15.5,0l142.5,142.5c2.3,2.2,4.6,4.5,6.8,6.8
	c37.4,39.1,60.4,92.1,60.4,150.5C473.7,822.2,470.7,842.8,465,862.2z"/>
</svg>
