<?xml version="1.0" encoding="UTF-8" standalone="no"?>
<svg
   xmlns:dc="http://purl.org/dc/elements/1.1/"
   xmlns:cc="http://creativecommons.org/ns#"
   xmlns:rdf="http://www.w3.org/1999/02/22-rdf-syntax-ns#"
   xmlns:svg="http://www.w3.org/2000/svg"
   xmlns="http://www.w3.org/2000/svg"
   xmlns:sodipodi="http://sodipodi.sourceforge.net/DTD/sodipodi-0.dtd"
   xmlns:inkscape="http://www.inkscape.org/namespaces/inkscape"
   width="674pt"
   height="517pt"
   viewBox="0 0 674 517"
   version="1.1"
   id="svg2"
   inkscape:version="0.48.4 r9939"
   sodipodi:docname="logo-ebusiness-HD-Fond_transparent_RGB.svg">
  <metadata
     id="metadata82">
    <rdf:RDF>
      <cc:Work
         rdf:about="">
        <dc:format>image/svg+xml</dc:format>
        <dc:type
           rdf:resource="http://purl.org/dc/dcmitype/StillImage" />
        <dc:title></dc:title>
      </cc:Work>
    </rdf:RDF>
  </metadata>
  <defs
     id="defs80" />
  <sodipodi:namedview
     pagecolor="#875a5a"
     bordercolor="#666666"
     borderopacity="1"
     objecttolerance="10"
     gridtolerance="10"
     guidetolerance="10"
     inkscape:pageopacity="0"
     inkscape:pageshadow="2"
     inkscape:window-width="1920"
     inkscape:window-height="1151"
     id="namedview78"
     showgrid="false"
     inkscape:zoom="0.51644782"
     inkscape:cx="511.49956"
     inkscape:cy="386.98719"
     inkscape:window-x="0"
     inkscape:window-y="25"
     inkscape:window-maximized="1"
     inkscape:current-layer="svg2" />
  <path
     fill="#173e50"
     d=" M 332.43 31.55 C 337.89 29.00 344.00 28.35 349.96 28.12 C 361.12 27.77 372.25 28.97 383.30 30.49 C 393.27 31.79 402.91 34.79 412.55 37.55 C 427.38 42.03 442.16 46.73 456.56 52.48 C 460.91 54.45 465.74 56.05 468.91 59.83 C 449.75 50.87 429.52 44.52 409.25 38.61 C 389.80 32.60 369.33 29.88 348.98 30.51 C 342.65 30.91 335.85 31.69 330.60 35.60 C 326.24 38.84 325.81 44.69 325.32 49.66 C 323.54 64.08 326.11 78.57 329.38 92.59 C 336.82 129.67 344.23 167.07 344.79 205.01 C 345.03 208.67 345.37 212.33 345.20 216.00 C 344.45 227.06 344.64 238.18 342.88 249.16 C 338.92 281.33 326.79 311.96 311.00 340.09 C 286.94 382.53 252.71 418.65 213.70 447.69 C 202.73 455.91 191.12 463.20 179.59 470.60 C 175.14 472.76 170.26 473.85 165.58 475.39 C 171.32 471.77 177.46 468.84 183.20 465.22 C 222.26 441.31 257.43 410.74 285.44 374.44 C 306.45 347.10 323.24 316.36 333.63 283.44 C 339.10 266.11 342.03 248.07 343.39 229.98 C 343.84 217.29 343.73 204.58 343.43 191.89 C 341.23 155.93 334.69 120.37 327.21 85.16 C 323.71 70.43 322.19 54.95 325.14 39.99 C 325.89 36.12 328.98 33.17 332.43 31.55 Z"
     id="path6" />
  <path
     fill="#33aadd"
     d=" M 330.60 35.60 C 335.85 31.69 342.65 30.91 348.98 30.51 C 369.33 29.88 389.80 32.60 409.25 38.61 C 429.52 44.52 449.75 50.87 468.91 59.83 C 468.94 77.91 467.42 95.92 465.61 113.89 C 463.05 139.38 457.92 164.73 448.75 188.71 C 439.99 211.55 427.92 232.99 414.31 253.28 C 395.77 281.00 374.78 307.02 352.91 332.17 C 353.25 332.45 353.93 333.01 354.26 333.29 C 354.58 333.54 355.22 334.05 355.54 334.31 C 367.54 331.39 379.09 326.81 390.67 322.56 C 411.04 314.75 430.94 305.65 449.86 294.76 C 460.58 288.81 470.49 281.56 480.78 274.93 C 481.32 274.88 482.40 274.77 482.95 274.71 C 480.80 276.79 478.75 278.96 476.67 281.11 C 485.14 279.63 493.28 276.83 501.34 273.92 C 508.39 271.81 514.94 268.43 521.54 265.26 C 534.81 259.86 546.66 251.59 558.11 243.11 C 565.25 237.58 570.35 230.02 576.71 223.70 C 581.95 218.46 585.62 211.97 590.23 206.22 C 594.50 201.05 595.04 194.07 598.13 188.27 C 600.26 205.37 595.97 222.70 589.49 238.47 C 576.43 268.76 553.34 293.43 528.38 314.42 C 496.25 340.94 460.10 362.12 423.02 380.88 C 348.68 417.94 269.64 444.38 190.18 467.97 C 186.69 469.00 183.19 470.03 179.59 470.60 C 191.12 463.20 202.73 455.91 213.70 447.69 C 252.71 418.65 286.94 382.53 311.00 340.09 C 326.79 311.96 338.92 281.33 342.88 249.16 C 344.64 238.18 344.45 227.06 345.20 216.00 C 345.37 212.33 345.03 208.67 344.79 205.01 C 344.23 167.07 336.82 129.67 329.38 92.59 C 326.11 78.57 323.54 64.08 325.32 49.66 C 325.81 44.69 326.24 38.84 330.60 35.60 Z"
     id="path8" />
  <path
     fill="#86cceb"
     d=" M 331.66 42.63 C 334.35 37.29 340.85 36.11 346.20 35.30 C 365.36 33.48 384.50 36.91 403.15 41.01 C 403.26 41.41 403.48 42.19 403.59 42.58 C 401.33 42.91 399.02 43.02 396.86 43.79 C 394.16 47.41 391.76 51.45 387.47 53.44 C 388.34 54.10 389.21 54.77 390.09 55.44 C 385.96 58.08 381.53 60.19 377.06 62.18 C 372.39 64.26 368.34 67.54 363.53 69.33 C 356.37 71.96 348.73 72.71 341.24 73.89 C 338.98 74.47 336.17 74.81 334.78 76.88 C 333.90 80.63 334.02 84.52 333.80 88.34 C 331.19 80.34 330.34 71.93 329.35 63.63 C 328.75 56.61 328.52 49.12 331.66 42.63 Z"
     id="path10" />
  <path
     fill="#7dc8e9"
     d=" M 403.15 41.01 C 411.90 42.98 420.54 45.50 429.01 48.46 C 425.06 48.76 420.78 49.81 418.56 53.41 C 410.27 65.05 399.44 74.70 387.66 82.71 C 381.88 86.84 374.62 87.45 368.11 89.86 C 358.52 93.26 348.53 96.72 338.18 95.83 C 338.23 100.65 338.16 105.46 338.35 110.28 C 336.42 103.08 334.06 95.83 333.80 88.34 C 334.02 84.52 333.90 80.63 334.78 76.88 C 336.17 74.81 338.98 74.47 341.24 73.89 C 348.73 72.71 356.37 71.96 363.53 69.33 C 368.34 67.54 372.39 64.26 377.06 62.18 C 381.53 60.19 385.96 58.08 390.09 55.44 C 389.21 54.77 388.34 54.10 387.47 53.44 C 391.76 51.45 394.16 47.41 396.86 43.79 C 399.02 43.02 401.33 42.91 403.59 42.58 C 403.48 42.19 403.26 41.41 403.15 41.01 Z"
     id="path12" />
  <path
     fill="#74c5e8"
     d=" M 429.01 48.46 C 434.60 49.68 439.79 52.22 445.10 54.30 C 438.09 54.21 434.53 60.85 430.21 65.22 C 425.73 69.83 423.08 75.94 418.20 80.18 C 415.52 82.55 412.55 84.55 409.78 86.80 C 405.15 90.49 401.14 95.04 395.82 97.79 C 385.02 103.42 373.32 107.45 361.26 109.26 C 355.02 109.88 348.85 110.99 342.77 112.49 C 342.01 115.11 341.20 117.73 340.61 120.40 C 339.46 117.13 338.48 113.76 338.35 110.28 C 338.16 105.46 338.23 100.65 338.18 95.83 C 348.53 96.72 358.52 93.26 368.11 89.86 C 374.62 87.45 381.88 86.84 387.66 82.71 C 399.44 74.70 410.27 65.05 418.56 53.41 C 420.78 49.81 425.06 48.76 429.01 48.46 Z"
     id="path14" />
  <path
     fill="#67c0e6"
     d=" M 445.10 54.30 C 449.71 55.52 453.97 57.77 458.33 59.68 C 460.16 60.69 462.67 61.52 463.12 63.85 C 464.33 68.85 463.77 74.05 463.86 79.14 C 462.70 77.11 461.55 74.69 459.17 73.90 C 456.00 76.12 453.62 79.23 451.05 82.07 C 442.10 92.01 433.68 102.47 423.81 111.52 C 420.57 113.65 417.46 115.99 414.79 118.82 C 410.32 123.44 404.20 125.73 398.62 128.66 C 393.22 131.41 388.04 134.92 381.96 135.95 C 375.89 137.01 369.73 137.45 363.74 138.94 C 358.91 140.16 353.85 139.98 349.06 141.26 C 347.38 143.55 346.85 146.44 346.32 149.17 C 344.13 142.06 343.06 134.69 341.47 127.45 C 341.03 125.12 340.44 122.78 340.61 120.40 C 341.20 117.73 342.01 115.11 342.77 112.49 C 348.85 110.99 355.02 109.88 361.26 109.26 C 373.32 107.45 385.02 103.42 395.82 97.79 C 401.14 95.04 405.15 90.49 409.78 86.80 C 412.55 84.55 415.52 82.55 418.20 80.18 C 423.08 75.94 425.73 69.83 430.21 65.22 C 434.53 60.85 438.09 54.21 445.10 54.30 Z"
     id="path16" />
  <path
     fill="#4b4f51"
     d=" M 155.82 65.84 C 159.01 62.02 164.51 61.92 169.08 62.22 C 185.48 63.71 201.86 66.85 217.22 72.92 C 232.71 79.06 247.23 88.11 258.64 100.36 C 267.99 109.74 275.01 121.15 280.85 132.97 L 281.19 133.68 C 278.58 129.37 276.32 124.86 273.65 120.58 C 265.29 107.23 254.14 95.60 240.92 87.00 C 219.63 72.96 194.22 66.50 169.02 64.50 C 165.73 64.42 162.11 64.34 159.28 66.29 C 157.23 67.84 155.90 70.10 154.36 72.11 C 154.68 70.01 154.15 67.49 155.82 65.84 Z"
     id="path18" />
  <path
     fill="#c9d7dd"
     d=" M 159.28 66.29 C 162.11 64.34 165.73 64.42 169.02 64.50 C 194.22 66.50 219.63 72.96 240.92 87.00 C 254.14 95.60 265.29 107.23 273.65 120.58 C 276.32 124.86 278.58 129.37 281.19 133.68 L 280.85 132.97 C 285.72 139.83 286.43 148.45 288.43 156.38 C 289.47 164.29 289.57 172.49 288.30 180.38 C 287.48 183.24 286.57 186.08 286.05 189.02 C 281.25 224.57 270.05 258.90 257.26 292.29 C 252.55 304.39 247.75 316.47 242.10 328.17 C 243.92 312.84 245.70 297.46 245.49 281.99 C 245.85 235.30 235.04 188.34 212.88 147.14 C 213.03 147.56 213.32 148.40 213.47 148.81 C 211.99 147.14 210.60 145.37 209.51 143.41 C 198.10 122.41 183.63 103.13 167.23 85.77 C 162.93 81.22 157.92 77.32 154.36 72.11 C 155.90 70.10 157.23 67.84 159.28 66.29 Z"
     id="path20" />
  <path
     fill="#e0e8eb"
     d=" M 161.62 68.08 C 166.15 67.16 170.82 66.88 175.41 67.59 C 189.94 69.53 204.52 72.92 217.79 79.21 C 219.58 80.63 221.26 82.19 222.94 83.74 C 216.40 88.87 209.66 93.89 204.34 100.35 C 201.39 103.98 198.03 107.26 194.19 109.93 C 187.87 100.70 180.24 92.49 172.73 84.25 C 168.32 79.42 162.98 74.80 161.62 68.08 Z"
     id="path22" />
  <path
     fill="#5abae3"
     d=" M 451.05 82.07 C 453.62 79.23 456.00 76.12 459.17 73.90 C 461.55 74.69 462.70 77.11 463.86 79.14 C 464.18 84.46 463.23 89.75 462.93 95.06 C 461.59 94.36 460.26 93.66 458.93 92.96 C 452.48 102.34 444.39 110.37 436.71 118.70 C 430.13 124.50 424.19 131.02 417.12 136.24 C 411.53 140.76 405.28 144.36 399.09 147.97 C 390.48 152.21 381.14 154.87 371.69 156.38 C 365.21 157.20 358.66 157.08 352.17 157.74 C 351.53 160.22 350.88 162.69 350.43 165.21 C 348.77 159.96 346.77 154.70 346.32 149.17 C 346.85 146.44 347.38 143.55 349.06 141.26 C 353.85 139.98 358.91 140.16 363.74 138.94 C 369.73 137.45 375.89 137.01 381.96 135.95 C 388.04 134.92 393.22 131.41 398.62 128.66 C 404.20 125.73 410.32 123.44 414.79 118.82 C 417.46 115.99 420.57 113.65 423.81 111.52 C 433.68 102.47 442.10 92.01 451.05 82.07 Z"
     id="path24" />
  <path
     fill="#d7e1e5"
     d=" M 217.79 79.21 C 226.99 81.52 234.49 87.79 241.47 93.91 C 234.53 99.94 229.96 108.01 223.39 114.37 C 221.13 116.79 219.43 119.69 216.98 121.92 C 214.18 124.11 210.81 125.36 207.66 126.95 C 202.67 121.70 197.99 116.12 194.19 109.93 C 198.03 107.26 201.39 103.98 204.34 100.35 C 209.66 93.89 216.40 88.87 222.94 83.74 C 221.26 82.19 219.58 80.63 217.79 79.21 Z"
     id="path26" />
  <path
     fill="#4bb3e1"
     d=" M 436.71 118.70 C 444.39 110.37 452.48 102.34 458.93 92.96 C 460.26 93.66 461.59 94.36 462.93 95.06 C 461.38 110.81 460.39 126.77 455.99 142.05 C 452.96 150.90 444.23 155.68 439.00 163.01 C 436.13 166.79 432.29 169.63 428.95 172.96 C 421.55 180.91 413.93 189.01 404.38 194.40 C 401.13 196.62 397.82 198.80 394.09 200.16 C 388.76 202.14 383.95 205.76 378.11 206.14 C 373.85 206.42 369.53 206.73 365.27 206.28 C 364.22 205.45 363.64 204.18 363.03 203.03 C 359.46 195.25 356.25 187.29 354.00 179.02 C 352.83 174.42 350.79 169.98 350.43 165.21 C 350.88 162.69 351.53 160.22 352.17 157.74 C 358.66 157.08 365.21 157.20 371.69 156.38 C 381.14 154.87 390.48 152.21 399.09 147.97 C 405.28 144.36 411.53 140.76 417.12 136.24 C 424.19 131.02 430.13 124.50 436.71 118.70 Z"
     id="path28" />
  <path
     fill="#1f3d4a"
     d=" M 547.07 94.98 C 552.18 100.22 557.72 105.10 562.24 110.89 C 557.78 106.90 553.70 102.50 549.11 98.68 C 550.47 109.13 553.17 119.42 553.54 130.00 C 553.91 142.92 554.23 155.98 551.66 168.72 C 546.29 199.63 530.07 227.97 508.24 250.24 C 499.81 259.26 490.08 266.86 480.78 274.93 C 470.49 281.56 460.58 288.81 449.86 294.76 C 430.94 305.65 411.04 314.75 390.67 322.56 C 379.09 326.81 367.54 331.39 355.54 334.31 C 355.22 334.05 354.58 333.54 354.26 333.29 C 356.07 332.34 357.91 331.45 359.84 330.78 C 400.84 317.70 440.88 300.21 475.92 274.95 C 504.56 254.24 529.82 227.16 542.81 193.84 C 555.32 162.55 555.44 127.34 547.07 94.98 Z"
     id="path30" />
  <path
     fill="#2fa6d9"
     d=" M 549.11 98.68 C 553.70 102.50 557.78 106.90 562.24 110.89 C 562.87 111.50 563.47 112.15 564.03 112.85 C 565.38 114.56 566.78 116.23 568.27 117.82 C 577.09 127.98 583.98 139.72 589.55 151.93 C 588.75 152.69 587.94 153.45 587.15 154.21 C 585.91 151.50 584.55 148.84 583.13 146.23 C 575.02 131.54 564.57 118.26 553.05 106.10 C 555.34 116.92 557.36 127.89 557.05 139.01 C 557.40 151.52 555.98 164.01 553.58 176.28 C 551.01 186.50 546.98 196.27 542.79 205.92 C 539.14 211.32 536.05 217.07 532.46 222.51 C 527.37 230.30 521.29 237.38 515.73 244.83 C 504.85 254.82 495.48 266.66 482.95 274.71 C 482.40 274.77 481.32 274.88 480.78 274.93 C 490.08 266.86 499.81 259.26 508.24 250.24 C 530.07 227.97 546.29 199.63 551.66 168.72 C 554.23 155.98 553.91 142.92 553.54 130.00 C 553.17 119.42 550.47 109.13 549.11 98.68 Z"
     id="path32" />
  <path
     fill="#8ccfec"
     d=" M 553.05 106.10 C 564.57 118.26 575.02 131.54 583.13 146.23 C 575.52 150.33 570.62 157.64 564.12 163.10 C 559.77 166.78 557.00 171.81 553.58 176.28 C 555.98 164.01 557.40 151.52 557.05 139.01 C 557.36 127.89 555.34 116.92 553.05 106.10 Z"
     id="path34" />
  <path
     fill="#4b4f51"
     d=" M 564.03 112.85 C 565.62 114.34 567.05 116.01 568.27 117.82 C 566.78 116.23 565.38 114.56 564.03 112.85 Z"
     id="path36" />
  <path
     fill="#737779"
     d=" M 212.88 147.14 C 235.04 188.34 245.85 235.30 245.49 281.99 C 245.70 297.46 243.92 312.84 242.10 328.17 C 241.01 331.55 240.43 335.43 237.58 337.86 C 241.86 319.24 243.53 300.09 243.72 281.01 C 244.10 240.91 236.51 200.60 220.34 163.84 C 218.17 158.78 215.47 153.95 213.47 148.81 C 213.32 148.40 213.03 147.56 212.88 147.14 Z"
     id="path38" />
  <path
     fill="#7ac7e9"
     d=" M 564.12 163.10 C 570.62 157.64 575.52 150.33 583.13 146.23 C 584.55 148.84 585.91 151.50 587.15 154.21 C 587.52 155.06 587.90 155.92 588.27 156.78 C 582.76 161.77 577.14 166.64 572.07 172.07 C 565.03 179.35 557.18 185.89 550.96 193.93 C 548.19 197.89 545.73 202.07 542.79 205.92 C 546.98 196.27 551.01 186.50 553.58 176.28 C 557.00 171.81 559.77 166.78 564.12 163.10 Z"
     id="path40" />
  <path
     fill="#45b1e0"
     d=" M 589.55 151.93 C 594.05 162.13 596.97 172.99 598.27 184.06 C 598.34 185.45 598.65 186.93 598.13 188.27 C 595.04 194.07 594.50 201.05 590.23 206.22 C 585.62 211.97 581.95 218.46 576.71 223.70 C 570.35 230.02 565.25 237.58 558.11 243.11 C 546.66 251.59 534.81 259.86 521.54 265.26 C 524.23 258.52 530.72 254.61 535.23 249.23 C 543.44 239.78 553.31 231.98 561.54 222.55 C 567.82 215.80 573.98 208.92 579.66 201.66 C 583.40 196.78 588.26 192.92 592.16 188.19 C 595.37 184.37 594.91 179.05 593.96 174.50 C 593.39 171.85 592.62 169.24 591.82 166.66 C 590.76 163.32 589.59 160.02 588.27 156.78 C 587.90 155.92 587.52 155.06 587.15 154.21 C 587.94 153.45 588.75 152.69 589.55 151.93 Z"
     id="path42" />
  <path
     fill="#6ac1e6"
     d=" M 588.27 156.78 C 589.59 160.02 590.76 163.32 591.82 166.66 C 580.04 175.50 570.33 186.65 560.67 197.68 C 556.18 202.86 550.59 206.92 546.01 212.00 C 540.32 218.32 534.14 224.20 528.93 230.95 C 525.01 236.01 520.77 240.84 515.73 244.83 C 521.29 237.38 527.37 230.30 532.46 222.51 C 536.05 217.07 539.14 211.32 542.79 205.92 C 545.73 202.07 548.19 197.89 550.96 193.93 C 557.18 185.89 565.03 179.35 572.07 172.07 C 577.14 166.64 582.76 161.77 588.27 156.78 Z"
     id="path44" />
  <path
     fill="#5dbce4"
     d=" M 560.67 197.68 C 570.33 186.65 580.04 175.50 591.82 166.66 C 592.62 169.24 593.39 171.85 593.96 174.50 C 586.24 180.20 580.26 187.80 573.90 194.90 C 568.23 201.86 561.46 207.79 555.42 214.41 C 549.57 220.90 542.92 226.60 537.16 233.17 C 530.20 239.87 522.99 246.31 516.44 253.43 C 510.40 260.32 503.46 266.35 497.56 273.36 C 498.81 273.56 500.07 273.76 501.34 273.92 C 493.28 276.83 485.14 279.63 476.67 281.11 C 478.75 278.96 480.80 276.79 482.95 274.71 C 495.48 266.66 504.85 254.82 515.73 244.83 C 520.77 240.84 525.01 236.01 528.93 230.95 C 534.14 224.20 540.32 218.32 546.01 212.00 C 550.59 206.92 556.18 202.86 560.67 197.68 Z"
     id="path46" />
  <path
     fill="#52b6e2"
     d=" M 573.90 194.90 C 580.26 187.80 586.24 180.20 593.96 174.50 C 594.91 179.05 595.37 184.37 592.16 188.19 C 588.26 192.92 583.40 196.78 579.66 201.66 C 573.98 208.92 567.82 215.80 561.54 222.55 C 553.31 231.98 543.44 239.78 535.23 249.23 C 530.72 254.61 524.23 258.52 521.54 265.26 C 514.94 268.43 508.39 271.81 501.34 273.92 C 500.07 273.76 498.81 273.56 497.56 273.36 C 503.46 266.35 510.40 260.32 516.44 253.43 C 522.99 246.31 530.20 239.87 537.16 233.17 C 542.92 226.60 549.57 220.90 555.42 214.41 C 561.46 207.79 568.23 201.86 573.90 194.90 Z"
     id="path48" />
  <path
     fill="#eeeff0"
     d=" M 286.05 189.02 C 286.57 186.08 287.48 183.24 288.30 180.38 C 288.54 182.72 288.80 185.09 288.57 187.46 C 285.47 213.09 278.91 238.20 270.67 262.64 C 262.80 286.90 253.23 310.58 242.89 333.88 C 241.55 336.98 239.79 339.89 237.87 342.66 C 237.51 341.27 237.19 339.88 236.83 338.50 L 237.58 337.86 C 240.43 335.43 241.01 331.55 242.10 328.17 C 247.75 316.47 252.55 304.39 257.26 292.29 C 270.05 258.90 281.25 224.57 286.05 189.02 Z"
     id="path50" />
  <path
     fill="#3e4143"
     d=" M 636.39 226.22 C 637.59 222.46 637.72 218.45 638.63 214.66 L 639.64 214.63 C 639.80 216.93 639.64 219.25 639.36 221.54 C 634.70 240.66 629.54 259.74 621.73 277.86 C 612.46 300.33 599.23 320.97 583.74 339.66 C 573.49 350.77 562.68 361.44 550.60 370.57 C 522.66 391.97 490.18 406.55 457.09 418.01 C 396.70 438.71 334.36 452.95 273.64 472.55 C 268.19 474.08 262.58 475.07 256.96 475.62 C 260.41 474.05 264.03 472.87 267.66 471.76 C 313.17 457.34 359.41 445.40 405.27 432.17 C 442.46 421.23 479.67 409.27 514.04 391.07 C 542.29 376.14 568.27 356.30 588.15 331.13 C 612.49 300.73 627.46 263.87 636.39 226.22 Z"
     id="path52" />
  <path
     fill="#dde6ea"
     d=" M 639.36 221.54 C 640.74 224.10 641.47 226.94 641.61 229.85 C 642.43 241.54 644.08 253.26 642.98 264.99 C 642.27 271.42 642.78 278.12 640.31 284.22 C 640.46 271.38 642.31 258.51 640.56 245.70 C 638.73 252.82 638.84 260.24 637.42 267.43 C 631.59 297.29 616.30 325.27 594.27 346.27 C 584.53 355.92 573.18 364.41 560.15 369.01 C 560.83 366.66 561.86 364.37 563.70 362.70 C 568.60 357.92 573.28 352.93 578.04 348.02 C 580.42 345.58 582.11 342.61 583.74 339.66 C 599.23 320.97 612.46 300.33 621.73 277.86 C 629.54 259.74 634.70 240.66 639.36 221.54 Z"
     id="path54" />
  <path
     fill="#c7d7dd"
     d=" M 637.42 267.43 C 638.84 260.24 638.73 252.82 640.56 245.70 C 642.31 258.51 640.46 271.38 640.31 284.22 C 637.03 316.98 624.12 349.26 601.46 373.46 C 578.94 398.00 549.13 414.51 518.37 426.46 C 475.28 443.09 429.75 452.05 384.32 459.48 C 364.03 462.22 343.85 465.81 323.46 467.76 C 311.35 469.53 299.13 470.43 287.00 472.06 C 282.57 472.60 278.09 472.83 273.64 472.55 C 334.36 452.95 396.70 438.71 457.09 418.01 C 490.18 406.55 522.66 391.97 550.60 370.57 C 562.68 361.44 573.49 350.77 583.74 339.66 C 582.11 342.61 580.42 345.58 578.04 348.02 C 573.28 352.93 568.60 357.92 563.70 362.70 C 561.86 364.37 560.83 366.66 560.15 369.01 C 573.18 364.41 584.53 355.92 594.27 346.27 C 616.30 325.27 631.59 297.29 637.42 267.43 Z"
     id="path56" />
  <path
     fill="#335362"
     d=" M 104.65 297.55 C 111.17 295.28 118.34 295.85 124.80 298.07 C 141.96 301.07 158.20 310.52 168.29 324.86 C 163.53 320.56 159.16 315.78 153.89 312.06 C 146.84 307.07 138.82 303.50 130.41 301.54 C 123.78 300.05 116.98 297.83 110.12 299.13 C 95.96 301.64 81.14 305.85 70.70 316.33 C 67.95 319.00 65.18 321.67 62.63 324.54 C 60.71 326.83 58.96 329.26 57.31 331.76 C 56.33 333.29 55.41 334.87 54.54 336.47 C 53.48 338.47 52.57 340.54 51.75 342.64 C 48.46 349.98 46.77 357.96 46.52 365.99 C 46.21 373.47 47.68 380.86 48.83 388.22 C 43.19 372.28 44.05 354.21 50.78 338.73 C 57.66 322.76 70.84 309.60 86.84 302.75 C 92.50 300.16 98.64 299.04 104.65 297.55 Z"
     id="path58" />
  <path
     fill="#2da2d4"
     d=" M 70.70 316.33 C 81.14 305.85 95.96 301.64 110.12 299.13 C 116.98 297.83 123.78 300.05 130.41 301.54 C 138.82 303.50 146.84 307.07 153.89 312.06 C 159.16 315.78 163.53 320.56 168.29 324.86 C 171.04 327.62 172.82 331.16 174.25 334.75 C 171.11 331.37 168.15 327.65 164.06 325.37 L 163.51 325.03 C 160.05 321.82 157.08 318.08 153.31 315.21 C 142.91 306.59 129.49 302.09 116.04 302.01 C 104.73 302.04 93.26 304.11 83.05 309.09 C 78.96 311.04 75.37 313.82 71.53 316.17 L 70.70 316.33 Z"
     id="path60" />
  <path
     fill="#80cae9"
     d=" M 83.05 309.09 C 93.26 304.11 104.73 302.04 116.04 302.01 C 129.49 302.09 142.91 306.59 153.31 315.21 C 146.14 315.05 138.96 314.90 131.82 315.63 C 121.56 316.42 111.26 315.82 100.98 316.06 C 93.90 316.29 86.92 313.61 79.84 314.95 C 77.08 315.38 74.31 315.79 71.53 316.17 C 75.37 313.82 78.96 311.04 83.05 309.09 Z"
     id="path62" />
  <path
     fill="#73c5e8"
     d=" M 79.84 314.95 C 86.92 313.61 93.90 316.29 100.98 316.06 C 111.26 315.82 121.56 316.42 131.82 315.63 C 138.96 314.90 146.14 315.05 153.31 315.21 C 157.08 318.08 160.05 321.82 163.51 325.03 C 158.66 323.42 153.50 322.72 148.41 323.31 C 140.63 324.16 132.84 325.04 125.00 325.05 C 109.42 324.95 93.77 325.59 78.31 323.31 C 73.06 322.42 67.72 323.13 62.63 324.54 C 65.18 321.67 67.95 319.00 70.70 316.33 L 71.53 316.17 C 74.31 315.79 77.08 315.38 79.84 314.95 Z"
     id="path64" />
  <path
     fill="#67c0e6"
     d=" M 62.63 324.54 C 67.72 323.13 73.06 322.42 78.31 323.31 C 93.77 325.59 109.42 324.95 125.00 325.05 C 132.84 325.04 140.63 324.16 148.41 323.31 C 153.50 322.72 158.66 323.42 163.51 325.03 L 164.06 325.37 C 165.67 328.54 167.42 331.65 169.34 334.64 C 165.36 331.34 160.06 329.96 154.98 330.94 C 140.80 333.21 126.44 334.60 112.07 334.10 C 99.02 334.36 86.02 332.99 73.17 330.82 C 67.88 329.79 62.51 330.60 57.31 331.76 C 58.96 329.26 60.71 326.83 62.63 324.54 Z"
     id="path66" />
  <path
     fill="#39adde"
     d=" M 164.06 325.37 C 168.15 327.65 171.11 331.37 174.25 334.75 C 179.05 342.00 180.71 350.93 181.71 359.44 C 181.30 359.65 180.46 360.08 180.05 360.29 C 178.44 362.11 176.49 363.66 173.98 363.89 C 169.95 364.40 166.36 366.65 162.40 367.25 C 157.32 365.71 152.68 362.92 147.46 361.72 C 147.40 369.16 146.99 377.18 142.31 383.37 C 138.68 388.04 135.34 393.54 129.62 395.89 C 124.70 397.95 119.59 400.03 114.19 400.23 C 104.20 400.35 95.33 394.32 88.74 387.27 C 84.87 383.35 83.11 378.03 80.92 373.10 C 79.59 370.13 79.09 366.90 78.75 363.70 C 79.84 363.99 80.94 364.30 82.03 364.60 C 81.95 362.68 81.86 360.76 81.78 358.84 C 76.01 360.67 70.94 364.13 65.24 366.09 C 60.52 366.60 55.42 364.94 51.65 362.13 C 49.33 357.28 51.22 351.71 51.36 346.59 C 60.24 347.10 69.01 348.68 77.67 350.68 C 83.05 351.95 88.67 352.39 94.13 351.33 C 103.92 349.49 114.02 348.54 123.91 350.20 C 129.60 351.03 135.27 353.00 141.07 352.16 C 152.49 350.53 163.66 346.61 175.33 347.32 C 174.31 344.72 173.33 342.11 172.20 339.56 C 171.34 337.87 170.38 336.23 169.34 334.64 C 167.42 331.65 165.67 328.54 164.06 325.37 Z"
     id="path68" />
  <path
     fill="#5cbbe4"
     d=" M 57.31 331.76 C 62.51 330.60 67.88 329.79 73.17 330.82 C 86.02 332.99 99.02 334.36 112.07 334.10 C 126.44 334.60 140.80 333.21 154.98 330.94 C 160.06 329.96 165.36 331.34 169.34 334.64 C 170.38 336.23 171.34 337.87 172.20 339.56 C 163.80 336.37 155.15 339.90 146.69 340.70 C 136.81 341.68 127.00 343.86 117.01 343.12 C 102.75 343.25 88.46 342.22 74.46 339.41 C 67.89 337.89 60.96 338.72 54.54 336.47 C 55.41 334.87 56.33 333.29 57.31 331.76 Z"
     id="path70" />
  <path
     fill="#51b6e2"
     d=" M 51.75 342.64 C 52.57 340.54 53.48 338.47 54.54 336.47 C 60.96 338.72 67.89 337.89 74.46 339.41 C 88.46 342.22 102.75 343.25 117.01 343.12 C 127.00 343.86 136.81 341.68 146.69 340.70 C 155.15 339.90 163.80 336.37 172.20 339.56 C 173.33 342.11 174.31 344.72 175.33 347.32 C 163.66 346.61 152.49 350.53 141.07 352.16 C 135.27 353.00 129.60 351.03 123.91 350.20 C 114.02 348.54 103.92 349.49 94.13 351.33 C 88.67 352.39 83.05 351.95 77.67 350.68 C 69.01 348.68 60.24 347.10 51.36 346.59 C 51.47 345.27 51.60 343.96 51.75 342.64 Z"
     id="path72" />
  <path
     fill="#31a9dc"
     d=" M 46.52 365.99 C 46.77 357.96 48.46 349.98 51.75 342.64 C 51.60 343.96 51.47 345.27 51.36 346.59 C 51.22 351.71 49.33 357.28 51.65 362.13 C 55.42 364.94 60.52 366.60 65.24 366.09 C 70.94 364.13 76.01 360.67 81.78 358.84 C 81.86 360.76 81.95 362.68 82.03 364.60 C 80.94 364.30 79.84 363.99 78.75 363.70 C 79.09 366.90 79.59 370.13 80.92 373.10 C 83.11 378.03 84.87 383.35 88.74 387.27 C 95.33 394.32 104.20 400.35 114.19 400.23 C 119.59 400.03 124.70 397.95 129.62 395.89 C 135.34 393.54 138.68 388.04 142.31 383.37 C 146.99 377.18 147.40 369.16 147.46 361.72 C 152.68 362.92 157.32 365.71 162.40 367.25 C 166.36 366.65 169.95 364.40 173.98 363.89 C 176.49 363.66 178.44 362.11 180.05 360.29 C 180.46 360.08 181.30 359.65 181.71 359.44 C 181.79 360.09 181.94 361.40 182.02 362.05 C 182.57 367.80 181.42 373.50 180.72 379.19 C 177.76 395.92 168.06 411.33 154.47 421.49 C 142.91 430.31 128.42 434.79 114.00 435.49 C 97.14 434.89 80.27 428.73 67.76 417.25 C 59.18 409.39 52.19 399.42 48.83 388.22 C 47.68 380.86 46.21 373.47 46.52 365.99 Z"
     id="path74" />
  <path
     fill="#a3c8d8"
     d=" M 181.91 359.10 C 182.37 359.35 183.28 359.86 183.73 360.11 C 184.29 366.47 185.11 373.90 180.72 379.19 C 181.42 373.50 182.57 367.80 182.02 362.05 C 181.99 361.31 181.94 359.84 181.91 359.10 Z"
     id="path76" />
</svg>
