<?xml version="1.0" encoding="UTF-8" standalone="no"?>
<!-- Generator: Adobe Illustrator 19.0.0, SVG Export Plug-In . SVG Version: 6.00 Build 0)  -->

<svg
   xmlns:dc="http://purl.org/dc/elements/1.1/"
   xmlns:cc="http://creativecommons.org/ns#"
   xmlns:rdf="http://www.w3.org/1999/02/22-rdf-syntax-ns#"
   xmlns:svg="http://www.w3.org/2000/svg"
   xmlns="http://www.w3.org/2000/svg"
   xmlns:xlink="http://www.w3.org/1999/xlink"
   xmlns:sodipodi="http://sodipodi.sourceforge.net/DTD/sodipodi-0.dtd"
   xmlns:inkscape="http://www.inkscape.org/namespaces/inkscape"
   version="1.1"
   id="Calque_1"
   x="0px"
   y="0px"
   viewBox="0 0 315 339"
   enable-background="new 0 0 315 339"
   xml:space="preserve"
   inkscape:version="0.48.4 r9939"
   width="100%"
   height="100%"
   sodipodi:docname="logo_dma.logo.inkscape.svg"><metadata
     id="metadata114"><rdf:RDF><cc:Work
         rdf:about=""><dc:format>image/svg+xml</dc:format><dc:type
           rdf:resource="http://purl.org/dc/dcmitype/StillImage" /></cc:Work></rdf:RDF></metadata><defs
     id="defs112" /><sodipodi:namedview
     pagecolor="#ffffff"
     bordercolor="#666666"
     borderopacity="1"
     objecttolerance="10"
     gridtolerance="10"
     guidetolerance="10"
     inkscape:pageopacity="0"
     inkscape:pageshadow="2"
     inkscape:window-width="1920"
     inkscape:window-height="1151"
     id="namedview110"
     showgrid="false"
     inkscape:zoom="0.69616519"
     inkscape:cx="-146.3072"
     inkscape:cy="169.5"
     inkscape:window-x="0"
     inkscape:window-y="25"
     inkscape:window-maximized="1"
     inkscape:current-layer="Calque_1" /><g
     id="g3"
     transform="matrix(1.2,0,0,1.2,-37.12473,10.52499)"><image
       overflow="visible"
       width="910"
       height="671"
       transform="matrix(0.24,0,0,0.24,34.0473,174.3101)"
       id="image5"
       style="overflow:visible" /></g><g
     id="g7"
     transform="matrix(1.2,0,0,1.2,-37.12473,10.52499)"
     style="opacity:0.65"><image
       overflow="visible"
       width="663"
       height="521"
       transform="matrix(0.24,0,0,0.24,63.5805,183.3238)"
       id="image9"
       style="overflow:visible" /></g><polygon
     points="181.8,186.9 222.3,149 179.4,128.8 "
     id="polygon11"
     transform="matrix(1.2,0,0,1.2,-37.12473,10.52499)"
     style="fill:#9f2354" /><polygon
     points="128.6,91.6 178.9,78.2 178.9,115.1 "
     id="polygon13"
     transform="matrix(1.2,0,0,1.2,-37.12473,10.52499)"
     style="fill:#621148" /><g
     id="g15"
     transform="matrix(1.2,0,0,1.2,-37.12473,10.52499)"><g
       enable-background="new    "
       id="g17"><g
         id="g19"><g
           enable-background="new    "
           id="g21"><g
             id="g23"><polyline
               points="222.3,149 185.9,174.6 215.3,191.1 222.3,149      "
               id="polyline25"
               style="fill:#e83486" /><path
               d="m 135.5,209.4 -0.6,1 0.6,-0.4 0,-0.6 m 53.8,-94.3 -57.2,29.5 3.7,63.5 3.2,-5.5 50.3,-87.5"
               id="path27"
               inkscape:connector-curvature="0"
               style="fill:#f8a800" /><polyline
               points="189.8,115.2 189.3,115.3 138.9,203 135.4,209 135.4,209 138.5,255 185,174.1 189.8,115.2             "
               id="polyline29"
               style="fill:#ec6408" /><polyline
               points="185,174.1 138.5,255 138.5,255.4 215.2,191.4 215.3,191.1 185.9,174.6 185,174.1      "
               id="polyline31"
               style="fill:#951f74" /></g></g></g><g
         id="g33"><g
           enable-background="new    "
           id="g35"><defs
             id="defs37"><polygon
               id="SVGID_1_"
               enable-background="new    "
               points="46.6,95 132.2,144.6 138.7,255.4 69.3,189 " /></defs><clipPath
             id="SVGID_2_"><use
               xlink:href="#SVGID_1_"
               overflow="visible"
               id="use41"
               style="overflow:visible"
               x="0"
               y="0"
               width="315"
               height="339" /></clipPath><g
             clip-path="url(#SVGID_2_)"
             id="g43"><polyline
               points="133.2,142.2 81.9,113.2 82.2,115 137.1,210.2 133.2,142.2      "
               id="polyline45"
               style="fill:#f8a800" /><path
               d="m 45.6,92.6 23.8,97.5 30.8,29.6 -30.8,-29.6 -0.1,-0.4 32.6,40.1 -6.9,-84.2 -49.4,-53 m 36.3,20.6 -1.1,-0.6 1.4,2.4 -0.3,-1.8"
               id="path47"
               inkscape:connector-curvature="0"
               style="fill:#f49600" /><polyline
               points="80.8,112.6 45.6,92.6 45.9,94 91.2,173.3 91.6,173.8 92.5,174.5 137.1,210.2 82.2,115        80.8,112.6      "
               id="polyline49"
               style="fill:#e8307a" /><polyline
               points="100.2,219.8 139.9,257.9 139.9,257.5 139.8,257.4 137.1,210.2 92.5,174.5 91.8,173.9      "
               id="polyline51"
               style="fill:#ec6408" /><path
               d="M 91.6,172.9"
               id="path53"
               inkscape:connector-curvature="0"
               style="fill:#ec6408" /></g></g></g><g
         id="g55"><g
           enable-background="new    "
           id="g57"><defs
             id="defs59"><polygon
               id="SVGID_3_"
               enable-background="new    "
               points="139.4,66.6 231.7,93.4 132.2,144.6 46.6,95 " /></defs><clipPath
             id="SVGID_4_"><use
               xlink:href="#SVGID_3_"
               overflow="visible"
               id="use63"
               style="overflow:visible"
               x="0"
               y="0"
               width="315"
               height="339" /></clipPath><g
             clip-path="url(#SVGID_4_)"
             id="g65"><polyline
               points="178.9,78.2 140.6,66.1 44.2,95.6 44.5,95.8 44.4,95.7 137.7,94.6 137.7,94.1 178.9,78.2             "
               id="polyline67"
               style="fill:#951f74" /><path
               d="m 190.9,115.7 -111.3,0.8 -0.6,-0.3 51.9,30.6 60,-31.1 m 0.9,-0.5 -1.8,0 1,0.4 0.8,-0.4"
               id="path69"
               inkscape:connector-curvature="0"
               style="fill:#fbba00" /><polyline
               points="137.7,94.6 44.4,95.7 44.5,95.8 79,116.2 79.6,116.5 190.9,115.7 191,115.6 190,115.2        137.7,94.6      "
               id="polyline71"
               style="fill:#e83486" /></g></g></g></g></g><g
     id="g73"
     transform="matrix(1.2,0,0,1.2,-37.12473,10.52499)"><g
       enable-background="new    "
       id="g75"><g
         id="g77"><polygon
           points="243.9,103.4 245.6,51.2 281.8,35.4 277.6,82.8 "
           id="polygon79"
           style="fill:#f8a800" /></g><g
         id="g81"><polygon
           points="203.5,34.8 245.6,51.2 243.9,103.4 205.1,82.8 "
           id="polygon83"
           style="fill:#f07f00" /></g><g
         id="g85"><polygon
           points="240.8,19.4 281.8,35.4 245.6,51.2 203.5,34.8 "
           id="polygon87"
           style="fill:#fcbc00" /></g></g></g><linearGradient
     id="SVGID_5_"
     gradientUnits="userSpaceOnUse"
     x1="73.513"
     y1="194.0507"
     x2="127.5369"
     y2="140.0268"><stop
       offset="0"
       style="stop-color:#FFFFFF"
       id="stop90" /><stop
       offset="0.6687"
       style="stop-color:#000000"
       id="stop92" /></linearGradient><polygon
     points="138.5,255 69,189.5 46.5,95.2 132.2,144.6 "
     id="polygon94"
     style="opacity:0.31000001;fill:url(#SVGID_5_)"
     transform="matrix(1.2,0,0,1.2,-37.12473,10.52499)" /><linearGradient
     id="SVGID_6_"
     gradientUnits="userSpaceOnUse"
     x1="128.2931"
     y1="148.5169"
     x2="186.5219"
     y2="206.7457"
     gradientTransform="matrix(1.2,0,0,1.2,-37.12473,10.52499)"><stop
       offset="0"
       style="stop-color:#FFFFFF"
       id="stop97" /><stop
       offset="0.2577"
       style="stop-color:#FFFFFF;stop-opacity:0"
       id="stop99" /></linearGradient><path
     d="m 121.51527,184.04499 8.28,131.4 c 0,0 55.68,-92.4 55.68,-95.4 0,-3 5.28,-71.16 5.28,-71.16 l -69.24,35.16 z"
     id="path101"
     style="fill:url(#SVGID_6_)"
     inkscape:connector-curvature="0" /><linearGradient
     id="SVGID_7_"
     gradientUnits="userSpaceOnUse"
     x1="245.2233"
     y1="51.5716"
     x2="287.0386"
     y2="93.3868"
     gradientTransform="matrix(1.2,0,0,1.2,-37.12473,10.52499)"><stop
       offset="0"
       style="stop-color:#FFFFFF"
       id="stop104" /><stop
       offset="0.2577"
       style="stop-color:#FFFFFF;stop-opacity:0"
       id="stop106" /></linearGradient><path
     d="m 257.59527,71.96499 -2.04,62.04 c 0,0 63.96,-20.64 63.96,-23.76 0,-3 -18.36,-57.24 -18.36,-57.24 l -43.56,18.96 z"
     id="path108"
     style="fill:url(#SVGID_7_)"
     inkscape:connector-curvature="0" /></svg>