<?xml version="1.0" encoding="utf-8"?>
<!-- Generator: Adobe Illustrator 19.1.0, SVG Export Plug-In . SVG Version: 6.00 Build 0)  -->
<svg version="1.1" id="Calque_1" xmlns="http://www.w3.org/2000/svg" xmlns:xlink="http://www.w3.org/1999/xlink" x="0px" y="0px"
	 viewBox="0 0 512 1024" style="enable-background:new 0 0 512 1024;" xml:space="preserve">
<style type="text/css">
	.st0{display:none;fill:#E8E8E8;stroke:#1D1D1B;stroke-miterlimit:10;}
	.st1{display:none;}
	.st2{display:inline;}
	.st3{fill:#FF9800;}
	.st4{display:inline;filter:url(#Adobe_OpacityMaskFilter);}
	.st5{display:inline;opacity:0.2;mask:url(#SVGID_1_);}
	.st6{display:none;fill:#FFFFFF;}
	.st7{fill:#FFFFFF;stroke:#000000;stroke-width:2;stroke-miterlimit:10;}
	.st8{display:none;opacity:0.79;}
	.st9{fill:#2196F3;}
</style>
<rect class="st0" width="512" height="512"/>
<g class="st1">
	<g class="st2">
		<path class="st3" d="M257,0L257,0c-0.3,0-0.5,0-0.8,0c-0.3,0-0.5,0-0.8,0v0C136.7,0.6,40.5,97,40.5,215.9
			c0,86.1,56.1,164.6,123.3,195.1c39.6,18,74.5,74.5,74.5,74.5c4.9,4.9,11.3,7.4,17.7,7.5v0c0.1,0,0.2,0,0.2,0c0.1,0,0.2,0,0.2,0v0
			c6.4-0.1,12.8-2.6,17.7-7.5c0,0,34.9-56.5,74.5-74.5c67.2-30.5,123.3-109,123.3-195.1C471.9,97,375.8,0.6,257,0z"/>
	</g>
	<defs>
		<filter id="Adobe_OpacityMaskFilter" filterUnits="userSpaceOnUse" x="40.5" y="0" width="431.4" height="493">
			
				<feColorMatrix  type="matrix" values="-1 0 0 0 1  0 -1 0 0 1  0 0 -1 0 1  0 0 0 1 0" color-interpolation-filters="sRGB" result="source"/>
		</filter>
	</defs>
	<mask maskUnits="userSpaceOnUse" x="40.5" y="0" width="431.4" height="493" id="SVGID_1_" class="st2">
		<g style="filter:url(#Adobe_OpacityMaskFilter);">
			
				<image style="overflow:visible;" width="908" height="1036" xlink:href="CA2F4B322990AE6D.jpg"  transform="matrix(0.48 0 0 0.48 38.5385 -1.9994)">
			</image>
		</g>
	</mask>
	<g class="st5">
		<path d="M257,0L257,0c-0.3,0-0.5,0-0.8,0c-0.3,0-0.5,0-0.8,0v0C136.7,0.6,40.5,97,40.5,215.9c0,86.1,56.1,164.6,123.3,195.1
			c39.6,18,74.5,74.5,74.5,74.5c4.9,4.9,11.3,7.4,17.7,7.5v0c0.1,0,0.2,0,0.2,0c0.1,0,0.2,0,0.2,0v0c6.4-0.1,12.8-2.6,17.7-7.5
			c0,0,34.9-56.5,74.5-74.5c67.2-30.5,123.3-109,123.3-195.1C471.9,97,375.8,0.6,257,0z"/>
	</g>
</g>
<circle class="st6" cx="256" cy="215.9" r="187.9"/>
<g>
	<path class="st7" d="M404.8,179.4c0,28.7-14.2,71.6-14.2,71.6c-19.2,63-134.7,244-134.7,244S140.5,314,121.2,251
		c0,0-14.2-42.9-14.2-71.6c0-82.2,66.7-148.9,148.9-148.9C338.2,30.5,404.8,97.2,404.8,179.4z"/>
</g>
<g class="st8">
	<g class="st2">
		<path class="st9" d="M256,26.7c83.9,0,151.9,68,151.9,151.9c0,29.3-14.4,73-14.4,73c-17.6,57.7-114.2,212.1-134,243.4
			c-0.8,1.3-2.2,2-3.5,2c-1.4,0-2.7-0.7-3.5-2c-19.8-31.3-116.3-185.8-133.9-243.4c0,0-14.4-43.7-14.4-73
			C104.1,94.8,172.1,26.7,256,26.7 M256,0.7c-24,0-47.3,4.7-69.3,14c-21.2,9-40.2,21.8-56.5,38.1c-16.3,16.3-29.2,35.4-38.1,56.6
			c-9.3,22-14,45.3-14,69.3c0,32,13.7,74.9,15.7,80.9c18.3,59.6,109.3,205.9,136.7,249.4c5.6,8.8,15.1,14.1,25.5,14.1
			c10.4,0,20-5.3,25.5-14.1c27.5-43.5,118.4-189.9,136.8-249.4c2-6.1,15.7-48.9,15.7-80.9c0-24-4.7-47.3-14-69.3
			c-9-21.2-21.8-40.2-38.1-56.6c-16.3-16.3-35.4-29.2-56.6-38.1C303.3,5.5,280,0.7,256,0.7L256,0.7z"/>
	</g>
</g>
</svg>
