<?xml version="1.0" encoding="UTF-8" standalone="no"?>
<!-- Created with Inkscape (http://www.inkscape.org/) -->

<svg
   xmlns:dc="http://purl.org/dc/elements/1.1/"
   xmlns:cc="http://creativecommons.org/ns#"
   xmlns:rdf="http://www.w3.org/1999/02/22-rdf-syntax-ns#"
   xmlns:svg="http://www.w3.org/2000/svg"
   xmlns="http://www.w3.org/2000/svg"
   version="1.2"
   width="580"
   height="580"
   id="svg2">
  <metadata
     id="metadata2975">
    <rdf:RDF>
      <cc:Work
         rdf:about="">
        <dc:format>image/svg+xml</dc:format>
        <dc:type
           rdf:resource="http://purl.org/dc/dcmitype/StillImage" />
        <cc:license
           rdf:resource="http://web.resource.org/cc/PublicDomain" />
        <dc:language>en</dc:language>
        <dc:title></dc:title>
      </cc:Work>
    </rdf:RDF>
  </metadata>
  <defs
     id="defs4">
    <symbol
       viewBox="244.5 110 489 219.9"
       id="symbol-university">
      <path
         d="m 79,43 57,119 c 0,0 21,-96 104,-96 83,0 124,106 124,106 L 407,39 489,22 0,17 79,43 z"
         id="path4460" />
      <path
         d="M 94,176 73,215"
         id="path4462"
         style="fill:none;stroke:#000000;stroke-width:20" />
      <path
         d="M 300,19 C 300,29.5 277.4,38 249.5,38 221.6,38 199,29.5 199,19 199,8.5 221.6,0 249.5,0 277.4,0 300,8.5 300,19 z"
         id="path4464" />
      <path
         d="M 112,216 96,178 64,88 C 64,88 55,80 60,53 65,26 76,29 76,29"
         id="path4466"
         style="stroke:#000000;stroke-width:20" />
    </symbol>
    <marker
       refX="0"
       refY="0"
       orient="auto"
       id="Arrow2Lend"
       style="overflow:visible">
      <path
         d="M 8.7185878,4.0337352 -2.2072895,0.01601326 8.7185884,-4.0017078 c -1.7454984,2.3720609 -1.7354408,5.6174519 -6e-7,8.035443 z"
         transform="matrix(-1.1,0,0,-1.1,-1.1,0)"
         id="path4137"
         style="font-size:12px;fill-rule:evenodd;stroke-width:0.625;stroke-linejoin:round" />
    </marker>
    <marker
       refX="0"
       refY="0"
       orient="auto"
       id="Arrow1Mend"
       style="overflow:visible">
      <path
         d="M 0,0 5,-5 -12.5,0 5,5 0,0 z"
         transform="matrix(-0.4,0,0,-0.4,-4,0)"
         id="path4125"
         style="fill-rule:evenodd;stroke:#000000;stroke-width:1pt;marker-start:none" />
    </marker>
    <marker
       refX="0"
       refY="0"
       orient="auto"
       id="TriangleOutL"
       style="overflow:visible">
      <path
         d="m 5.77,0 -8.65,5 0,-10 8.65,5 z"
         transform="scale(0.8,0.8)"
         id="path4214"
         style="fill-rule:evenodd;stroke:#000000;stroke-width:1pt;marker-start:none" />
    </marker>
    <marker
       refX="0"
       refY="0"
       orient="auto"
       id="Arrow1Lend"
       style="overflow:visible">
      <path
         d="M 0,0 5,-5 -12.5,0 5,5 0,0 z"
         transform="matrix(-0.8,0,0,-0.8,-10,0)"
         id="path4119"
         style="fill-rule:evenodd;stroke:#000000;stroke-width:1pt;marker-start:none" />
    </marker>
    <marker
       refX="0"
       refY="0"
       orient="auto"
       id="Tail"
       style="overflow:visible">
      <g
         transform="scale(-1.2,-1.2)"
         id="g4152">
        <path
           d="M -3.8048674,-3.9585227 0.54352094,0"
           id="path4154"
           style="fill:none;stroke:#000000;stroke-width:0.80000001;stroke-linecap:round;marker-start:none;marker-end:none" />
        <path
           d="M -1.2866832,-3.9585227 3.0617053,0"
           id="path4156"
           style="fill:none;stroke:#000000;stroke-width:0.80000001;stroke-linecap:round;marker-start:none;marker-end:none" />
        <path
           d="M 1.3053582,-3.9585227 5.6537466,0"
           id="path4158"
           style="fill:none;stroke:#000000;stroke-width:0.80000001;stroke-linecap:round;marker-start:none;marker-end:none" />
        <path
           d="M -3.8048674,4.1775838 0.54352094,0.21974226"
           id="path4160"
           style="fill:none;stroke:#000000;stroke-width:0.80000001;stroke-linecap:round;marker-start:none;marker-end:none" />
        <path
           d="M -1.2866832,4.1775838 3.0617053,0.21974226"
           id="path4162"
           style="fill:none;stroke:#000000;stroke-width:0.80000001;stroke-linecap:round;marker-start:none;marker-end:none" />
        <path
           d="M 1.3053582,4.1775838 5.6537466,0.21974226"
           id="path4164"
           style="fill:none;stroke:#000000;stroke-width:0.80000001;stroke-linecap:round;marker-start:none;marker-end:none" />
      </g>
    </marker>
    <marker
       refX="0"
       refY="0"
       orient="auto"
       id="Arrow1Sstart"
       style="overflow:visible">
      <path
         d="M 0,0 5,-5 -12.5,0 5,5 0,0 z"
         transform="matrix(0.2,0,0,0.2,1.2,0)"
         id="path4128"
         style="fill-rule:evenodd;stroke:#000000;stroke-width:1pt;marker-start:none" />
    </marker>
    <marker
       refX="0"
       refY="0"
       orient="auto"
       id="Arrow1Send"
       style="overflow:visible">
      <path
         d="M 0,0 5,-5 -12.5,0 5,5 0,0 z"
         transform="matrix(-0.2,0,0,-0.2,-1.2,0)"
         id="path4131"
         style="fill-rule:evenodd;stroke:#000000;stroke-width:1pt;marker-start:none" />
    </marker>
    <marker
       refX="0"
       refY="0"
       orient="auto"
       id="SemiCircleOut"
       style="overflow:visible">
      <path
         d="m -2.5,-0.80913858 c 0,2.75999998 -2.24,4.99999998 -5,4.99999998 l 0,-10 c 2.76,0 5,2.24 5,5.00000002 z"
         transform="matrix(0.6,0,0,0.6,4.2752958,0.4580676)"
         id="path4235"
         style="fill-rule:evenodd;stroke:#000000;stroke-width:1pt;marker-start:none;marker-end:none" />
    </marker>
    <marker
       refX="0"
       refY="0"
       orient="auto"
       id="Arrow2Send"
       style="overflow:visible">
      <path
         d="M 8.7185878,4.0337352 -2.2072895,0.01601326 8.7185884,-4.0017078 c -1.7454984,2.3720609 -1.7354408,5.6174519 -6e-7,8.035443 z"
         transform="matrix(-0.3,0,0,-0.3,0.69,0)"
         id="path4149"
         style="font-size:12px;fill-rule:evenodd;stroke-width:0.625;stroke-linejoin:round" />
    </marker>
    <marker
       refX="0"
       refY="0"
       orient="auto"
       id="TriangleOutS"
       style="overflow:visible">
      <path
         d="m 5.77,0 -8.65,5 0,-10 8.65,5 z"
         transform="scale(0.2,0.2)"
         id="path4220"
         style="fill-rule:evenodd;stroke:#000000;stroke-width:1pt;marker-start:none" />
    </marker>
    <marker
       refX="0"
       refY="0"
       orient="auto"
       id="CurveIn"
       style="overflow:visible">
      <path
         d="m 4.625493,-5.0456926 c -2.76,0 -5.00000002,2.24 -5.00000002,5.00000002 0,2.75999998 2.24000002,4.99999998 5.00000002,4.99999998"
         transform="scale(0.6,0.6)"
         id="path4238"
         style="fill:none;stroke:#000000;stroke-width:1pt;marker-start:none;marker-end:none" />
    </marker>
    <marker
       refX="0"
       refY="0"
       orient="auto"
       id="InfiniteLineStart"
       style="overflow:visible">
      <g
         transform="translate(-13,0)"
         id="g4298">
        <circle
           cx="3"
           cy="0"
           r="0.80000001"
           id="circle4300" />
        <circle
           cx="6.5"
           cy="0"
           r="0.80000001"
           id="circle4302" />
        <circle
           cx="10"
           cy="0"
           r="0.80000001"
           id="circle4304" />
      </g>
    </marker>
    <marker
       refX="0"
       refY="0"
       orient="auto"
       id="StopS"
       style="overflow:visible">
      <path
         d="M 0,5.65 0,-5.65"
         transform="scale(0.2,0.2)"
         id="path4229"
         style="fill:none;stroke:#000000;stroke-width:1pt" />
    </marker>
    <marker
       refX="0"
       refY="0"
       orient="auto"
       id="Arrow2Sstart"
       style="overflow:visible">
      <path
         d="M 8.7185878,4.0337352 -2.2072895,0.01601326 8.7185884,-4.0017078 c -1.7454984,2.3720609 -1.7354408,5.6174519 -6e-7,8.035443 z"
         transform="matrix(0.3,0,0,0.3,-0.69,0)"
         id="path4146"
         style="font-size:12px;fill-rule:evenodd;stroke-width:0.625;stroke-linejoin:round" />
    </marker>
    <marker
       refX="0"
       refY="0"
       orient="auto"
       id="DiamondS"
       style="overflow:visible">
      <path
         d="M 0,-7.0710768 -7.0710894,0 0,7.0710589 7.0710462,0 0,-7.0710768 z"
         transform="scale(0.2,0.2)"
         id="path4202"
         style="fill-rule:evenodd;stroke:#000000;stroke-width:1pt;marker-start:none" />
    </marker>
    <marker
       refX="0"
       refY="0"
       orient="auto"
       id="RazorWire">
       style=&quot;overflow:visible&quot;&gt;
      <path
   d="m 0.02272727,-0.74009011 0,1.4375 -7.78124997,2.31250001 18.4374997,0 -7.1874997,-2.31250001 0,-1.4375 7.2499997,-2.15624999 -18.4687497,0 7.74999997,2.15624999 z"
   transform="scale(0.8,0.8)"
   id="path4286"
   style="fill:#808080;fill-opacity:1;fill-rule:evenodd;stroke:#000000;stroke-width:0.1pt" />
</marker>
    <filter
       color-interpolation-filters="sRGB"
       id="filter4438">
      <feColorMatrix
         id="feColorMatrix4440"
         result="result2"
         type="luminanceToAlpha" />
      <feComposite
         in2="SourceGraphic"
         operator="arithmetic"
         k1="0"
         k2="0"
         k3="2"
         k4="0"
         in="result2"
         result="result4"
         id="feComposite4442" />
      <feBlend
         in2="result2"
         mode="multiply"
         in="result4"
         result="result3"
         id="feBlend4444" />
      <feComposite
         in2="SourceGraphic"
         operator="in"
         in="result3"
         id="feComposite4446" />
    </filter>
    <filter
       color-interpolation-filters="sRGB"
       id="filter4448">
      <feColorMatrix
         id="feColorMatrix4450"
         result="result2"
         type="luminanceToAlpha" />
      <feComposite
         in2="SourceGraphic"
         operator="arithmetic"
         k1="0"
         k2="0"
         k3="2"
         k4="0"
         in="result2"
         result="result4"
         id="feComposite4452" />
      <feBlend
         in2="result2"
         mode="multiply"
         in="result4"
         result="result3"
         id="feBlend4454" />
      <feComposite
         in2="SourceGraphic"
         operator="in"
         in="result3"
         id="feComposite4456" />
    </filter>
    <filter
       color-interpolation-filters="sRGB"
       id="filter4458">
      <feColorMatrix
         id="feColorMatrix4460"
         result="result2"
         type="luminanceToAlpha" />
      <feComposite
         in2="SourceGraphic"
         operator="arithmetic"
         k1="0"
         k2="0"
         k3="2"
         k4="0"
         in="result2"
         result="result4"
         id="feComposite4462" />
      <feBlend
         in2="result2"
         mode="multiply"
         in="result4"
         result="result3"
         id="feBlend4464" />
      <feComposite
         in2="SourceGraphic"
         operator="in"
         in="result3"
         id="feComposite4466" />
    </filter>
  </defs>
  <path
     d="m 154.53125,30.6875 c -15.32795,0 -28.34375,13.047045 -28.34375,28.375 l 0,372 c 0.0584,1.44453 327.64837,0.78554 327.59375,0 l 0,-372 c 0,-15.327955 -13.04705,-28.375 -28.375,-28.375 l -270.875,0 z m 17.15625,72.0625 24.5,0 c 9.16662,8e-5 16.01948,1.9187 20.53125,5.75 4.51166,3.83145 6.74994,9.64069 6.75,17.375 -6e-5,5.04888 -1.16803,9.23247 -3.53125,12.5625 -2.32753,3.33012 -5.74289,5.61723 -10.21875,6.90625 2.32742,0.7878 4.59695,2.48441 6.78125,5.0625 2.21999,2.57815 4.43613,6.1133 6.65625,10.625 l 11,21.9375 -11.65625,0 -10.25,-20.59375 c -2.64979,-5.37107 -5.21228,-8.93291 -7.71875,-10.6875 -2.47074,-1.75452 -5.85941,-2.62497 -10.15625,-2.625 l -11.8125,0 0,33.90625 -10.875,0 0,-80.21875 z m 107.65625,0 10.84375,0 0,80.21875 -10.84375,0 0,-80.21875 z m 67.46875,0 24.46875,0 c 8.98759,8e-5 15.79161,2.04305 20.375,6.125 4.61908,4.0463 6.90619,10.00201 6.90625,17.84375 -6e-5,7.91346 -2.28717,13.89132 -6.90625,17.9375 -4.58339,4.04626 -11.38741,6.06253 -20.375,6.0625 l -13.625,0 0,32.25 -10.84375,0 0,-80.21875 z m -164.25,8.9375 0,28.46875 13.625,0 c 5.22782,4e-5 9.16272,-1.19462 11.8125,-3.59375 2.6855,-2.43485 4.0312,-5.99669 4.03125,-10.6875 -5e-5,-4.69069 -1.34575,-8.23041 -4.03125,-10.59375 -2.64978,-2.39902 -6.58468,-3.59368 -11.8125,-3.59375 l -13.625,0 z m 175.09375,0 0,30.125 13.625,0 c 5.04879,4e-5 8.96154,-1.29227 11.71875,-3.90625 2.75711,-2.61388 4.12495,-6.35347 4.125,-11.1875 -5e-5,-4.79812 -1.36789,-8.511 -4.125,-11.125 -2.75721,-2.61386 -6.66996,-3.90618 -11.71875,-3.90625 l -13.625,0 z m -112.375,57.625 11.34375,0 0,13.65625 -11.34375,0 0,-13.65625 z m 67.46875,0 11.34375,0 0,13.65625 -11.34375,0 0,-13.65625 z m 84.21875,0 11.34375,0 0,13.65625 -11.34375,0 0,-13.65625 z"
     id="rect3812"
     style="font-size:medium;font-style:normal;font-variant:normal;font-weight:normal;font-stretch:normal;text-indent:0;text-align:start;text-decoration:none;line-height:normal;letter-spacing:normal;word-spacing:normal;text-transform:none;direction:ltr;block-progression:tb;writing-mode:lr-tb;text-anchor:start;opacity:0.75;color:#000000;fill:#ffffff;fill-opacity:1;stroke:none;stroke-width:35;marker:none;visibility:visible;display:inline;overflow:visible;filter:url(#filter4438);enable-background:accumulate;font-family:Bitstream Vera Sans;-inkscape-font-specification:Bitstream Vera Sans" />
  <path
     d="m 126.26953,448.6745 327.24093,0 18.25809,25.28041 -363.5371,0 18.03808,-25.28041 z"
     id="path4453"
     style="opacity:0.75;fill:#ffffff;fill-opacity:1;stroke:#ffffff;stroke-width:12.94465637;stroke-linecap:round;stroke-linejoin:round;stroke-miterlimit:4;stroke-opacity:1;stroke-dasharray:none;filter:url(#filter4448)" />
  <path
     d="m 104.12145,542.20485 371.75708,0 2e-5,-43.53849 -371.5371,0 -0.22,43.53849 z"
     id="path4457"
     style="opacity:0.75;fill:#ffffff;fill-opacity:1;stroke:#ffffff;stroke-width:12.94465637;stroke-linecap:round;stroke-linejoin:round;stroke-miterlimit:4;stroke-opacity:1;stroke-dasharray:none;filter:url(#filter4458)" />
  <g
     transform="translate(-33.312988,0)"
     id="flowRoot3054"
     style="font-size:110px;font-style:normal;font-variant:normal;font-weight:normal;font-stretch:normal;line-height:125%;letter-spacing:0px;word-spacing:0px;fill:#000000;fill-opacity:1;stroke:none;font-family:Sans;-inkscape-font-specification:Sans" />
</svg>
