<?xml version="1.0" encoding="UTF-8" standalone="no"?>
<!-- Created with Inkscape (http://www.inkscape.org/) -->

<svg
   xmlns:dc="http://purl.org/dc/elements/1.1/"
   xmlns:cc="http://creativecommons.org/ns#"
   xmlns:rdf="http://www.w3.org/1999/02/22-rdf-syntax-ns#"
   xmlns:svg="http://www.w3.org/2000/svg"
   xmlns="http://www.w3.org/2000/svg"
   version="1.0"
   width="580"
   height="580"
   id="svg2">
  <metadata
     id="metadata10">
    <rdf:RDF>
      <cc:Work
         rdf:about="">
        <dc:format>image/svg+xml</dc:format>
        <dc:type
           rdf:resource="http://purl.org/dc/dcmitype/StillImage" />
        <cc:license
           rdf:resource="http://web.resource.org/cc/PublicDomain" />
        <dc:language>en</dc:language>
        <dc:title></dc:title>
      </cc:Work>
    </rdf:RDF>
  </metadata>
  <defs
     id="defs4">
    <style
       type="text/css"
       id="style6" />
  </defs>
  <path
     d="m 31.21875,125.03125 c -0.321634,99.45147 -0.3125,313.39111 -0.3125,324.28125 0,14.14033 9.093987,25.53125 20.40625,25.53125 l 430.59375,0 c 0.70703,0 1.40587,-0.0382 2.09375,-0.125 l 51.03125,0 c 11.24354,0 20.28125,-10.59365 20.28125,-23.71875 l 0,-301.28125 L 535.03125,150.125 537,440.1875 c 0.28111,14.4913 -25.15964,15.54344 -26.65625,2.4375 l 0.75,-316.875 -479.875,-0.71875 z M 86,154 l 375,0 0,26 -375,0 0,-26 z m -34,55 255,0 0,14 -255,0 0,-14 z m 336.625,6.75 39.5625,0 7.46875,11.9375 -55.1875,0 8.15625,-11.9375 z m 11.4375,1.40625 0,9.375 16.59375,0 0,-9.375 -16.59375,0 z m 54.90625,3.625 16.28125,0 2.625,6.8125 -21.8125,0 2.90625,-6.8125 z M 348.75,223.125 l 12.21875,0 1.03125,4.4375 -14.65625,0 1.40625,-4.4375 z m -8.71875,8.40625 136.375,0 c 7.88168,0 14.21875,6.33707 14.21875,14.21875 l 0,76.03125 C 490.625,329.66293 484.28793,336 476.40625,336 l -136.375,0 c -7.88168,0 -14.21875,-6.33707 -14.21875,-14.21875 l 0,-76.03125 c 0,-7.88168 6.33707,-14.21875 14.21875,-14.21875 z M 52,241 l 255,0 0,14 -255,0 0,-14 z m 371.21875,4.25 c -20.86242,0 -37.75,16.91883 -37.75,37.78125 0,20.86242 16.88758,37.78125 37.75,37.78125 C 444.08117,320.8125 461,303.89367 461,283.03125 461,262.16883 444.08117,245.25 423.21875,245.25 z m 0,15.21875 c 12.46327,0 22.59375,10.09923 22.59375,22.5625 0,12.46327 -10.13048,22.5625 -22.59375,22.5625 -12.46327,0 -22.5625,-10.09923 -22.5625,-22.5625 0,-12.46327 10.09923,-22.5625 22.5625,-22.5625 z M 52,273 l 255,0 0,14 -255,0 0,-14 z m 0,32 255,0 0,14 -255,0 0,-14 z m 0,32 255,0 0,14 -255,0 0,-14 z m 0,32 430,0 0,14 -430,0 0,-14 z m 0,32 430,0 0,14 -430,0 0,-14 z m 0,32 430,0 0,14 -430,0 0,-14 z"
     id="rect7948"
     style="opacity:0.75;fill:#000000;fill-opacity:1;fill-rule:evenodd;stroke:#e5d2d2;stroke-width:0.98879904;stroke-opacity:1" />
  <g
     id="text3857"
     style="font-size:36.50536728px;font-style:normal;font-variant:normal;font-weight:bold;font-stretch:normal;text-align:start;line-height:125%;letter-spacing:0px;word-spacing:0px;writing-mode:lr-tb;text-anchor:start;fill:#000000;fill-opacity:1;stroke:none;font-family:Sans;-inkscape-font-specification:Sans Bold" />
  <g
     id="text3896"
     style="font-size:25.55375862px;font-style:normal;font-variant:normal;font-weight:bold;font-stretch:normal;text-align:start;line-height:125%;letter-spacing:0px;word-spacing:0px;writing-mode:lr-tb;text-anchor:start;fill:#000000;fill-opacity:1;stroke:none;font-family:Sans;-inkscape-font-specification:Sans Bold" />
  <g
     transform="matrix(0.21235796,0,0,0.21235796,323.3892,78.646311)"
     id="g8144"
     style="fill:#000000;fill-opacity:1" />
  <g
     transform="matrix(0.21235796,0,0,0.21235796,389.3892,78.646311)"
     id="g8150"
     style="fill:#000000;fill-opacity:1" />
  <g
     transform="matrix(0.31972367,0,0,0.31972367,268.65635,192.82199)"
     id="g4354"
     style="fill:#000000;fill-opacity:1" />
</svg>
