<?xml version="1.0" encoding="UTF-8" standalone="no"?>
<!-- Generator: Adobe Illustrator 16.0.0, SVG Export Plug-In . SVG Version: 6.00 Build 0)  -->

<svg
   xmlns:dc="http://purl.org/dc/elements/1.1/"
   xmlns:cc="http://creativecommons.org/ns#"
   xmlns:rdf="http://www.w3.org/1999/02/22-rdf-syntax-ns#"
   xmlns:svg="http://www.w3.org/2000/svg"
   xmlns="http://www.w3.org/2000/svg"
   xmlns:sodipodi="http://sodipodi.sourceforge.net/DTD/sodipodi-0.dtd"
   xmlns:inkscape="http://www.inkscape.org/namespaces/inkscape"
   version="1.1"
   id="Calque_1"
   x="0px"
   y="0px"
   width="350"
   height="350"
   viewBox="0 0 350 350"
   enable-background="new 0 0 400 400"
   xml:space="preserve"
   inkscape:version="0.91 r13725"
   sodipodi:docname="Jungle bus-04.svg"
   inkscape:export-filename="/home/florian/Bureau/Jungle Bus/Appli mobile/Pictos type arrêt de bus/V2/Jungle bus-01.png"
   inkscape:export-xdpi="67"
   inkscape:export-ydpi="67"><metadata
     id="metadata17"><rdf:RDF><cc:Work
         rdf:about=""><dc:format>image/svg+xml</dc:format><dc:type
           rdf:resource="http://purl.org/dc/dcmitype/StillImage" /><dc:title /></cc:Work></rdf:RDF></metadata><defs
     id="defs15" /><sodipodi:namedview
     pagecolor="#ffffff"
     bordercolor="#666666"
     borderopacity="1"
     objecttolerance="10"
     gridtolerance="10"
     guidetolerance="10"
     inkscape:pageopacity="0"
     inkscape:pageshadow="2"
     inkscape:window-width="1855"
     inkscape:window-height="1056"
     id="namedview13"
     showgrid="false"
     inkscape:zoom="1.18"
     inkscape:cx="290.1391"
     inkscape:cy="102.4978"
     inkscape:window-x="65"
     inkscape:window-y="24"
     inkscape:window-maximized="1"
     inkscape:current-layer="Calque_1" /><g
     id="g3"
     transform="translate(0,-50)"
     style="fill:#3982c4;fill-opacity:1"><g
       id="g5"
       style="fill:#3982c4;fill-opacity:1"><path
         d="m 173.488,274.044 c 0.094,0 0.188,-0.003 0.283,-0.009 2.637,-0.155 4.648,-2.418 4.495,-5.054 -0.235,-3.976 -0.341,-7.597 -0.34,-10.894 -0.021,-14.475 2.09,-22.607 4.163,-26.852 l 0,89.668 c 0,4.082 3.311,7.391 7.391,7.391 4.082,0 7.392,-3.309 7.392,-7.391 l 0,-53.963 2.771,0 0,53.963 c 0,4.082 3.311,7.391 7.391,7.391 4.081,0 7.391,-3.309 7.391,-7.391 l 0,-73.474 c -1.723,0.626 -3.588,1.253 -5.616,1.886 -0.579,0.18 -1.177,0.271 -1.776,0.271 -2.633,0 -4.926,-1.688 -5.707,-4.203 -0.474,-1.526 -0.326,-3.144 0.416,-4.557 0.743,-1.413 1.992,-2.454 3.518,-2.927 4.031,-1.25 7,-2.383 9.166,-3.33 l 0,-6.965 c 1.859,0.605 3.859,1.405 5.363,2.271 0.424,0.237 0.801,0.481 1.125,0.712 0.434,0.31 0.766,0.594 0.966,0.811 -0.429,0.498 -1.495,1.479 -3.509,2.576 -1.725,0.963 -4.088,2.033 -7.145,3.168 0.226,0.341 0.527,0.82 0.881,1.439 0.077,-0.008 0.152,-0.023 0.23,-0.023 1.404,0 2.541,1.138 2.541,2.541 0,0.691 -0.278,1.316 -0.726,1.773 0.362,0.92 0.71,1.924 1.022,3.004 4.236,-1.602 7.485,-3.191 10.02,-4.864 1.865,-1.246 3.369,-2.55 4.527,-4.124 1.152,-1.553 1.928,-3.514 1.918,-5.531 0,-0.086 -0.002,-0.191 -0.006,-0.317 0,-0.003 0,-0.006 0,-0.009 0,-0.006 0,-0.012 0,-0.017 -0.068,-1.731 -0.686,-3.29 -1.475,-4.506 -0.117,-0.175 -0.24,-0.338 -0.361,-0.503 -1.355,-1.848 -3.035,-3.084 -4.768,-4.143 -2.846,-1.699 -5.986,-2.861 -8.721,-3.688 -1.365,-0.409 -2.623,-0.724 -3.699,-0.947 -0.732,-0.142 -1.303,-0.255 -1.916,-0.323 -0.287,-0.056 -0.585,-0.086 -0.889,-0.086 l -1.529,0 c -2.527,2.071 -5.756,3.317 -9.271,3.317 -3.515,0 -6.745,-1.246 -9.271,-3.317 l -3.023,0 c -0.096,0 -0.19,0.008 -0.285,0.014 -1.084,0.023 -2.846,0.266 -4.844,1.273 -3.215,1.594 -6.683,5.082 -9.107,11.263 -2.455,6.205 -4.102,15.176 -4.111,28.721 0,3.501 0.113,7.308 0.357,11.452 0.147,2.541 2.255,4.503 4.768,4.503 z"
         id="path7"
         inkscape:connector-curvature="0"
         style="fill:#3982c4;fill-opacity:1" /><path
         d="m 213.117,243.506 c -0.248,0.08 -0.508,0.136 -0.781,0.136 -1.404,0 -2.541,-1.138 -2.541,-2.541 0,-0.891 0.461,-1.672 1.155,-2.126 -0.249,-0.429 -0.472,-0.787 -0.647,-1.058 -0.095,-0.146 -0.17,-0.257 -0.234,-0.353 -1.359,0.484 -2.84,0.977 -4.455,1.479 -2.522,0.783 -3.931,3.465 -3.146,5.986 0.637,2.049 2.525,3.364 4.564,3.364 0.471,0 0.947,-0.069 1.42,-0.218 2.031,-0.633 3.891,-1.258 5.601,-1.881 -0.285,-0.997 -0.604,-1.931 -0.936,-2.788 z"
         id="path9"
         inkscape:connector-curvature="0"
         style="fill:#3982c4;fill-opacity:1" /><circle
         cx="199.004"
         cy="205.491"
         r="13.45"
         id="circle11"
         style="fill:#3982c4;fill-opacity:1" /></g></g></svg>