<?xml version="1.0" encoding="utf-8"?>
<!-- Generator: Adobe Illustrator 19.0.0, SVG Export Plug-In . SVG Version: 6.00 Build 0)  -->
<svg version="1.1" id="Calque_1" xmlns="http://www.w3.org/2000/svg" xmlns:xlink="http://www.w3.org/1999/xlink" x="0px" y="0px"
	 viewBox="0 0 512 1024" enable-background="new 0 0 512 1024" xml:space="preserve">
<rect display="none" fill="#E8E8E8" stroke="#1D1D1B" stroke-miterlimit="10" width="512" height="512"/>
<g display="none">
	<g display="inline">
		<path fill="#FF9800" d="M257,0L257,0c-0.3,0-0.5,0-0.8,0c-0.3,0-0.5,0-0.8,0v0C136.7,0.6,40.5,97,40.5,215.9
			c0,86.1,56.1,164.6,123.3,195.1c39.6,18,74.5,74.5,74.5,74.5c4.9,4.9,11.3,7.4,17.7,7.5v0c0.1,0,0.2,0,0.2,0c0.1,0,0.2,0,0.2,0v0
			c6.4-0.1,12.8-2.6,17.7-7.5c0,0,34.9-56.5,74.5-74.5c67.2-30.5,123.3-109,123.3-195.1C471.9,97,375.8,0.6,257,0z"/>
	</g>
	<defs>
		<filter id="Adobe_OpacityMaskFilter" filterUnits="userSpaceOnUse" x="40.5" y="0" width="431.4" height="493">
			
				<feColorMatrix  type="matrix" values="-1 0 0 0 1  0 -1 0 0 1  0 0 -1 0 1  0 0 0 1 0" color-interpolation-filters="sRGB" result="source"/>
		</filter>
	</defs>
	<mask maskUnits="userSpaceOnUse" x="40.5" y="0" width="431.4" height="493" id="SVGID_1_" display="inline">
		<g filter="url(#Adobe_OpacityMaskFilter)">
			
				<image overflow="visible" width="908" height="1036" xlink:href="6743CACC5C9568B2.jpg"  transform="matrix(0.48 0 0 0.48 38.5385 -1.9994)">
			</image>
		</g>
	</mask>
	<g display="inline" opacity="0.2" mask="url(#SVGID_1_)">
		<path d="M257,0L257,0c-0.3,0-0.5,0-0.8,0c-0.3,0-0.5,0-0.8,0v0C136.7,0.6,40.5,97,40.5,215.9c0,86.1,56.1,164.6,123.3,195.1
			c39.6,18,74.5,74.5,74.5,74.5c4.9,4.9,11.3,7.4,17.7,7.5v0c0.1,0,0.2,0,0.2,0c0.1,0,0.2,0,0.2,0v0c6.4-0.1,12.8-2.6,17.7-7.5
			c0,0,34.9-56.5,74.5-74.5c67.2-30.5,123.3-109,123.3-195.1C471.9,97,375.8,0.6,257,0z"/>
	</g>
</g>
<circle display="none" fill="#FFFFFF" cx="256" cy="215.9" r="187.9"/>
<path display="none" fill="#FFFFFF" d="M361.7,385.7H150.3c-48.1,0-87.1-39-87.1-87.1V87.1C63.1,39,102.1,0,150.3,0h211.5
	c48.1,0,87.1,39,87.1,87.1v211.5C448.9,346.7,409.9,385.7,361.7,385.7z"/>
<path display="none" fill="#FFFFFF" d="M225.9,477.3L102.8,299.6c-16.7-24.2,0.6-57.2,30-57.2h246.5c29.4,0,46.7,33.1,29.9,57.2
	L285.8,477.3C271.3,498.2,240.4,498.2,225.9,477.3z"/>
<g display="none">
	<g display="inline">
		<path fill="#FF9800" d="M372.6,1H256.7h-1H139.8c-39.3,0-71.1,31.8-71.1,71.1v212.1c0,36.9,22.6,71,56.6,85.4
			c6.8,2.9,13.9,4.9,21.1,6.1c8,1.3,16.7,0.2,22.9,6.5c4.5,4.7,7.9,11.5,11.7,16.9c4,5.8,8.1,11.7,12.1,17.5
			c7.9,11.4,15.8,22.8,23.7,34.2l21.9,31.7c4.2,6,10.7,9.1,17.2,9.3v0c0.1,0,0.2,0,0.3,0c0.1,0,0.2,0,0.3,0v0
			c6.6-0.2,13-3.3,17.2-9.3l21.9-31.7c7.9-11.4,15.8-22.8,23.7-34.2c4-5.8,8.1-11.7,12.1-17.5c3.8-5.4,7.2-12.3,11.7-16.9
			c6.2-6.3,14.9-5.2,22.9-6.5c7.3-1.2,14.4-3.2,21.1-6.1c33.9-14.4,56.6-48.6,56.6-85.4V72.1C443.8,32.8,411.9,1,372.6,1z"/>
	</g>
	<defs>
		<filter id="Adobe_OpacityMaskFilter_1_" filterUnits="userSpaceOnUse" x="68.7" y="1" width="375" height="491">
			
				<feColorMatrix  type="matrix" values="-1 0 0 0 1  0 -1 0 0 1  0 0 -1 0 1  0 0 0 1 0" color-interpolation-filters="sRGB" result="source"/>
		</filter>
	</defs>
	<mask maskUnits="userSpaceOnUse" x="68.7" y="1" width="375" height="491" id="SVGID_2_" display="inline">
		<g filter="url(#Adobe_OpacityMaskFilter_1_)">
			
				<image overflow="visible" width="790" height="1032" xlink:href="6743CACC5C9568B5.jpg"  transform="matrix(0.48 0 0 0.48 66.7184 -0.997)">
			</image>
		</g>
	</mask>
	<g display="inline" opacity="0.2" mask="url(#SVGID_2_)">
		<path d="M372.6,1H256.7h-1H139.8c-39.3,0-71.1,31.8-71.1,71.1v212.1c0,36.9,22.6,71,56.6,85.4c6.8,2.9,13.9,4.9,21.1,6.1
			c8,1.3,16.7,0.2,22.9,6.5c4.5,4.7,7.9,11.5,11.7,16.9c4,5.8,8.1,11.7,12.1,17.5c7.9,11.4,15.8,22.8,23.7,34.2l21.9,31.7
			c4.2,6,10.7,9.1,17.2,9.3v0c0.1,0,0.2,0,0.3,0c0.1,0,0.2,0,0.3,0v0c6.6-0.2,13-3.3,17.2-9.3l21.9-31.7
			c7.9-11.4,15.8-22.8,23.7-34.2c4-5.8,8.1-11.7,12.1-17.5c3.8-5.4,7.2-12.3,11.7-16.9c6.2-6.3,14.9-5.2,22.9-6.5
			c7.3-1.2,14.4-3.2,21.1-6.1c33.9-14.4,56.6-48.6,56.6-85.4V72.1C443.8,32.8,411.9,1,372.6,1z"/>
	</g>
</g>
<g display="none">
	<g display="inline">
		<path fill="#4CAF50" d="M372.6,1H256.7h-1H139.8c-39.3,0-71.1,31.8-71.1,71.1v212.1c0,36.9,22.6,71,56.6,85.4
			c6.8,2.9,13.9,4.9,21.1,6.1c8,1.3,16.7,0.2,22.9,6.5c4.5,4.7,7.9,11.5,11.7,16.9c4,5.8,8.1,11.7,12.1,17.5
			c7.9,11.4,15.8,22.8,23.7,34.2l21.9,31.7c4.2,6,10.7,9.1,17.2,9.3v0c0.1,0,0.2,0,0.3,0c0.1,0,0.2,0,0.3,0v0
			c6.6-0.2,13-3.3,17.2-9.3l21.9-31.7c7.9-11.4,15.8-22.8,23.7-34.2c4-5.8,8.1-11.7,12.1-17.5c3.8-5.4,7.2-12.3,11.7-16.9
			c6.2-6.3,14.9-5.2,22.9-6.5c7.3-1.2,14.4-3.2,21.1-6.1c33.9-14.4,56.6-48.6,56.6-85.4V72.1C443.8,32.8,411.9,1,372.6,1z"/>
	</g>
	<defs>
		<filter id="Adobe_OpacityMaskFilter_2_" filterUnits="userSpaceOnUse" x="68.7" y="1" width="375" height="491">
			
				<feColorMatrix  type="matrix" values="-1 0 0 0 1  0 -1 0 0 1  0 0 -1 0 1  0 0 0 1 0" color-interpolation-filters="sRGB" result="source"/>
		</filter>
	</defs>
	<mask maskUnits="userSpaceOnUse" x="68.7" y="1" width="375" height="491" id="SVGID_3_" display="inline">
		<g filter="url(#Adobe_OpacityMaskFilter_2_)">
			
				<image overflow="visible" width="790" height="1032" xlink:href="6743CACC5C9568B4.jpg"  transform="matrix(0.48 0 0 0.48 66.7184 -0.997)">
			</image>
		</g>
	</mask>
	<g display="inline" opacity="0.2" mask="url(#SVGID_3_)">
		<path d="M372.6,1H256.7h-1H139.8c-39.3,0-71.1,31.8-71.1,71.1v212.1c0,36.9,22.6,71,56.6,85.4c6.8,2.9,13.9,4.9,21.1,6.1
			c8,1.3,16.7,0.2,22.9,6.5c4.5,4.7,7.9,11.5,11.7,16.9c4,5.8,8.1,11.7,12.1,17.5c7.9,11.4,15.8,22.8,23.7,34.2l21.9,31.7
			c4.2,6,10.7,9.1,17.2,9.3v0c0.1,0,0.2,0,0.3,0c0.1,0,0.2,0,0.3,0v0c6.6-0.2,13-3.3,17.2-9.3l21.9-31.7
			c7.9-11.4,15.8-22.8,23.7-34.2c4-5.8,8.1-11.7,12.1-17.5c3.8-5.4,7.2-12.3,11.7-16.9c6.2-6.3,14.9-5.2,22.9-6.5
			c7.3-1.2,14.4-3.2,21.1-6.1c33.9-14.4,56.6-48.6,56.6-85.4V72.1C443.8,32.8,411.9,1,372.6,1z"/>
	</g>
</g>
<g display="none">
	<g display="inline">
		<path fill="#FFEB3B" d="M372.6,33H256.7h-1H139.8c-39.3,0-71.1,31.8-71.1,71.1v212.1c0,36.9,22.6,71,56.6,85.4
			c6.8,2.9,13.9,4.9,21.1,6.1c8,1.3,16.7,0.2,22.9,6.5c4.5,4.7,7.9,11.5,11.7,16.9c4,5.8,8.1,11.7,12.1,17.5
			c7.9,11.4,15.8,22.8,23.7,34.2l21.9,31.7c4.2,6,10.7,9.1,17.2,9.3v0c0.1,0,0.2,0,0.3,0c0.1,0,0.2,0,0.3,0v0
			c6.6-0.2,13-3.3,17.2-9.3l21.9-31.7c7.9-11.4,15.8-22.8,23.7-34.2c4-5.8,8.1-11.7,12.1-17.5c3.8-5.4,7.2-12.3,11.7-16.9
			c6.2-6.3,14.9-5.2,22.9-6.5c7.3-1.2,14.4-3.2,21.1-6.1c33.9-14.4,56.6-48.6,56.6-85.4V104.1C443.8,64.8,411.9,33,372.6,33z"/>
	</g>
	<defs>
		<filter id="Adobe_OpacityMaskFilter_3_" filterUnits="userSpaceOnUse" x="68.7" y="33" width="375" height="491">
			
				<feColorMatrix  type="matrix" values="-1 0 0 0 1  0 -1 0 0 1  0 0 -1 0 1  0 0 0 1 0" color-interpolation-filters="sRGB" result="source"/>
		</filter>
	</defs>
	<mask maskUnits="userSpaceOnUse" x="68.7" y="33" width="375" height="491" id="SVGID_4_" display="inline">
		<g filter="url(#Adobe_OpacityMaskFilter_3_)">
			
				<image overflow="visible" width="790" height="1032" xlink:href="6743CACC5C9568BB.jpg"  transform="matrix(0.48 0 0 0.48 66.7184 31.003)">
			</image>
		</g>
	</mask>
	<g display="inline" opacity="0.2" mask="url(#SVGID_4_)">
		<path d="M372.6,33H256.7h-1H139.8c-39.3,0-71.1,31.8-71.1,71.1v212.1c0,36.9,22.6,71,56.6,85.4c6.8,2.9,13.9,4.9,21.1,6.1
			c8,1.3,16.7,0.2,22.9,6.5c4.5,4.7,7.9,11.5,11.7,16.9c4,5.8,8.1,11.7,12.1,17.5c7.9,11.4,15.8,22.8,23.7,34.2l21.9,31.7
			c4.2,6,10.7,9.1,17.2,9.3v0c0.1,0,0.2,0,0.3,0c0.1,0,0.2,0,0.3,0v0c6.6-0.2,13-3.3,17.2-9.3l21.9-31.7
			c7.9-11.4,15.8-22.8,23.7-34.2c4-5.8,8.1-11.7,12.1-17.5c3.8-5.4,7.2-12.3,11.7-16.9c6.2-6.3,14.9-5.2,22.9-6.5
			c7.3-1.2,14.4-3.2,21.1-6.1c33.9-14.4,56.6-48.6,56.6-85.4V104.1C443.8,64.8,411.9,33,372.6,33z"/>
	</g>
</g>
<g display="none">
	<g display="inline">
		<path fill="#9E9E9E" d="M440.9,46H325h-1H208.1c-39.3,0-71.1,31.8-71.1,71.1v212.1c0,36.9,22.6,71,56.6,85.4
			c6.8,2.9,13.9,4.9,21.1,6.1c8,1.3,16.7,0.2,22.9,6.5c4.5,4.7,7.9,11.5,11.7,16.9c4,5.8,8.1,11.7,12.1,17.5
			c7.9,11.4,15.8,22.8,23.7,34.2l21.9,31.7c4.2,6,10.7,9.1,17.2,9.3v0c0.1,0,0.2,0,0.3,0c0.1,0,0.2,0,0.3,0v0
			c6.6-0.2,13-3.3,17.2-9.3L364,496c7.9-11.4,15.8-22.8,23.7-34.2c4-5.8,8.1-11.7,12.1-17.5c3.8-5.4,7.2-12.3,11.7-16.9
			c6.2-6.3,14.9-5.2,22.9-6.5c7.3-1.2,14.4-3.2,21.1-6.1c33.9-14.4,56.6-48.6,56.6-85.4V117.1C512,77.8,480.2,46,440.9,46z"/>
	</g>
	<defs>
		<filter id="Adobe_OpacityMaskFilter_4_" filterUnits="userSpaceOnUse" x="137" y="46" width="375" height="491">
			
				<feColorMatrix  type="matrix" values="-1 0 0 0 1  0 -1 0 0 1  0 0 -1 0 1  0 0 0 1 0" color-interpolation-filters="sRGB" result="source"/>
		</filter>
	</defs>
	<mask maskUnits="userSpaceOnUse" x="137" y="46" width="375" height="491" id="SVGID_5_" display="inline">
		<g filter="url(#Adobe_OpacityMaskFilter_4_)">
			
				<image overflow="visible" width="790" height="1032" xlink:href="6743CACC5C9568BC.jpg"  transform="matrix(0.48 0 0 0.48 134.9642 44.003)">
			</image>
		</g>
	</mask>
	<g display="inline" opacity="0.2" mask="url(#SVGID_5_)">
		<path d="M440.9,46H325h-1H208.1c-39.3,0-71.1,31.8-71.1,71.1v212.1c0,36.9,22.6,71,56.6,85.4c6.8,2.9,13.9,4.9,21.1,6.1
			c8,1.3,16.7,0.2,22.9,6.5c4.5,4.7,7.9,11.5,11.7,16.9c4,5.8,8.1,11.7,12.1,17.5c7.9,11.4,15.8,22.8,23.7,34.2l21.9,31.7
			c4.2,6,10.7,9.1,17.2,9.3v0c0.1,0,0.2,0,0.3,0c0.1,0,0.2,0,0.3,0v0c6.6-0.2,13-3.3,17.2-9.3L364,496c7.9-11.4,15.8-22.8,23.7-34.2
			c4-5.8,8.1-11.7,12.1-17.5c3.8-5.4,7.2-12.3,11.7-16.9c6.2-6.3,14.9-5.2,22.9-6.5c7.3-1.2,14.4-3.2,21.1-6.1
			c33.9-14.4,56.6-48.6,56.6-85.4V117.1C512,77.8,480.2,46,440.9,46z"/>
	</g>
</g>
<g>
	<g>
		<path fill="#FFEB3B" d="M372.6,1H256.7h-1H139.8c-39.3,0-71.1,31.8-71.1,71.1v212.1c0,36.9,22.6,71,56.6,85.4
			c6.8,2.9,13.9,4.9,21.1,6.1c8,1.3,16.7,0.2,22.9,6.5c4.5,4.7,7.9,11.5,11.7,16.9c4,5.8,8.1,11.7,12.1,17.5
			c7.9,11.4,15.8,22.8,23.7,34.2l21.9,31.7c4.2,6,10.7,9.1,17.2,9.3v0c0.1,0,0.2,0,0.3,0c0.1,0,0.2,0,0.3,0v0
			c6.6-0.2,13-3.3,17.2-9.3l21.9-31.7c7.9-11.4,15.8-22.8,23.7-34.2c4-5.8,8.1-11.7,12.1-17.5c3.8-5.4,7.2-12.3,11.7-16.9
			c6.2-6.3,14.9-5.2,22.9-6.5c7.3-1.2,14.4-3.2,21.1-6.1c33.9-14.4,56.6-48.6,56.6-85.4V72.1C443.8,32.8,411.9,1,372.6,1z"/>
	</g>
	<defs>
		<filter id="Adobe_OpacityMaskFilter_5_" filterUnits="userSpaceOnUse" x="68.7" y="1" width="375" height="491">
			
				<feColorMatrix  type="matrix" values="-1 0 0 0 1  0 -1 0 0 1  0 0 -1 0 1  0 0 0 1 0" color-interpolation-filters="sRGB" result="source"/>
		</filter>
	</defs>
	<mask maskUnits="userSpaceOnUse" x="68.7" y="1" width="375" height="491" id="SVGID_6_">
		<g filter="url(#Adobe_OpacityMaskFilter_5_)">
			
				<image overflow="visible" width="790" height="1032" xlink:href="6743CACC5C9568BD.jpg"  transform="matrix(0.48 0 0 0.48 66.7184 -0.997)">
			</image>
		</g>
	</mask>
	<g opacity="0.2" mask="url(#SVGID_6_)">
		<path d="M372.6,1H256.7h-1H139.8c-39.3,0-71.1,31.8-71.1,71.1v212.1c0,36.9,22.6,71,56.6,85.4c6.8,2.9,13.9,4.9,21.1,6.1
			c8,1.3,16.7,0.2,22.9,6.5c4.5,4.7,7.9,11.5,11.7,16.9c4,5.8,8.1,11.7,12.1,17.5c7.9,11.4,15.8,22.8,23.7,34.2l21.9,31.7
			c4.2,6,10.7,9.1,17.2,9.3v0c0.1,0,0.2,0,0.3,0c0.1,0,0.2,0,0.3,0v0c6.6-0.2,13-3.3,17.2-9.3l21.9-31.7
			c7.9-11.4,15.8-22.8,23.7-34.2c4-5.8,8.1-11.7,12.1-17.5c3.8-5.4,7.2-12.3,11.7-16.9c6.2-6.3,14.9-5.2,22.9-6.5
			c7.3-1.2,14.4-3.2,21.1-6.1c33.9-14.4,56.6-48.6,56.6-85.4V72.1C443.8,32.8,411.9,1,372.6,1z"/>
	</g>
</g>
<path fill="#FFFFFF" d="M354.3,347.6H158.2c-33.5,0-60.6-27.1-60.6-60.6V91c0-33.5,27.1-60.6,60.6-60.6h196.1
	c33.5,0,60.6,27.1,60.6,60.6v196.1C414.9,320.5,387.7,347.6,354.3,347.6z"/>
<line fill="none" stroke="#878787" stroke-width="22.42" stroke-linecap="round" stroke-miterlimit="10" x1="197.1" y1="131.9" x2="314.7" y2="131.9"/>
<line fill="none" stroke="#878787" stroke-width="22.42" stroke-linecap="round" stroke-miterlimit="10" x1="197.1" y1="183.9" x2="314.7" y2="183.9"/>
<line fill="none" stroke="#878787" stroke-width="22.42" stroke-linecap="round" stroke-miterlimit="10" x1="197.1" y1="234.6" x2="314.7" y2="234.6"/>
</svg>
