<?xml version="1.0" encoding="UTF-8" standalone="no"?>
<!-- Created with Inkscape (http://www.inkscape.org/) -->

<svg
   xmlns:dc="http://purl.org/dc/elements/1.1/"
   xmlns:cc="http://creativecommons.org/ns#"
   xmlns:rdf="http://www.w3.org/1999/02/22-rdf-syntax-ns#"
   xmlns:svg="http://www.w3.org/2000/svg"
   xmlns="http://www.w3.org/2000/svg"
   xmlns:sodipodi="http://sodipodi.sourceforge.net/DTD/sodipodi-0.dtd"
   xmlns:inkscape="http://www.inkscape.org/namespaces/inkscape"
   width="32.722538mm"
   height="32.730156mm"
   viewBox="0 0 115.946 115.97299"
   id="svg6313"
   version="1.1"
   inkscape:version="0.91 r13725"
   sodipodi:docname="Logo appli mobile 2.svg"
   inkscape:export-filename="/home/florian/Bureau/Jungle Bus/Logo/Nouveau logo mars 2018/Logo appli mobile 2.png"
   inkscape:export-xdpi="213"
   inkscape:export-ydpi="213">
  <defs
     id="defs6315" />
  <sodipodi:namedview
     id="base"
     pagecolor="#ffffff"
     bordercolor="#666666"
     borderopacity="1.0"
     inkscape:pageopacity="0.0"
     inkscape:pageshadow="2"
     inkscape:zoom="2.8"
     inkscape:cx="52.137807"
     inkscape:cy="53.131996"
     inkscape:document-units="px"
     inkscape:current-layer="layer1"
     showgrid="false"
     fit-margin-top="0"
     fit-margin-left="0"
     fit-margin-right="0"
     fit-margin-bottom="0"
     inkscape:window-width="1855"
     inkscape:window-height="1056"
     inkscape:window-x="65"
     inkscape:window-y="24"
     inkscape:window-maximized="1" />
  <metadata
     id="metadata6318">
    <rdf:RDF>
      <cc:Work
         rdf:about="">
        <dc:format>image/svg+xml</dc:format>
        <dc:type
           rdf:resource="http://purl.org/dc/dcmitype/StillImage" />
        <dc:title></dc:title>
      </cc:Work>
    </rdf:RDF>
  </metadata>
  <g
     inkscape:label="Calque 1"
     inkscape:groupmode="layer"
     id="layer1"
     transform="translate(369.40157,448.48144)">
    <g
       transform="translate(-138.98557,-679.82844)"
       id="g319">
      <polygon
         style="fill:#fbb81d"
         id="polygon321"
         points="-151.829,242.542 -125.661,231.493 -114.553,257.688 -125.585,283.861 -114.47,310.071 -125.494,336.267 -151.663,347.32 -177.872,336.206 -204.047,347.238 -230.25,336.121 -219.209,309.946 -230.325,283.735 -219.292,257.562 -230.416,231.347 -204.214,242.459 -178.039,231.427 " />
      <path
         style="fill:#ffffff"
         inkscape:connector-curvature="0"
         id="path323"
         d="m -114.949,258.618 0.393,-0.931 -0.544,-1.281 -25.851,5.08 -8.469,-19.963 -2.027,0.855 8.108,19.111 -32.434,-4.217 -1.442,-25.495 -0.828,-0.352 -1.363,0.574 1.432,25.29 -21.522,2.887 -3.329,-18.306 -1.392,0.587 -0.799,-0.339 3.228,17.743 -18.29,-4.146 0.783,1.846 -0.227,0.537 17.851,4.046 -4.124,20.878 -24.438,0.485 -0.096,0.227 0.831,1.959 23.479,-0.466 0.79,29.528 -14.596,-6.254 0.612,1.443 -0.433,1.026 14.455,6.194 0,29.588 1.14,0.483 1.06,-0.446 0,-29.729 27.793,-4.117 -3.545,23.626 0.867,-0.365 1.328,0.563 3.597,-23.974 27.72,1.155 -6.93,33.16 0.494,0.209 1.876,-0.793 6.788,-32.483 3.069,0.128 0.059,0.003 24.338,-1.577 0.954,-2.267 -25.317,1.641 -2.793,-0.116 1.801,-22.08 15.675,-5.038 -0.371,-0.876 0.642,-1.522 -15.82,5.085 0.266,-23.783 25.551,-5.021 z m -84.53,3.777 21.668,-2.906 2.554,27.81 -28.312,-4.194 4.09,-20.71 z m 24.402,48.308 -27.949,4.14 -0.792,-29.553 28.741,4.259 0,21.154 z m 30.191,1.061 -28.003,-1.166 0.011,-20.85 29.738,0.555 -1.746,21.461 z m 1.913,-23.66 -30.057,-0.551 -2.569,-28.04 32.895,4.278 -0.269,24.313 z" />
      <path
         style="fill:#0267b1"
         inkscape:connector-curvature="0"
         id="path325"
         d="m -138.066,255.482 c -5.77,-5.811 -13.355,-8.719 -20.945,-8.719 -7.517,0 -15.037,2.856 -20.794,8.572 -10.896,10.82 -11.581,28.03 -2.02,39.658 l -3.94,3.916 c -0.812,-0.733 -1.569,-1.374 -2.174,-1.827 l -28.651,28.622 c 0.941,1.736 1.853,3.104 3.342,4.614 1.489,1.51 2.852,2.427 4.571,3.388 l 28.649,-28.623 0,-0.001 c -0.432,-0.646 -1.067,-1.423 -1.802,-2.241 l 3.923,-3.898 c 5.457,4.561 12.176,6.85 18.897,6.85 7.519,0 15.041,-2.856 20.798,-8.572 11.565,-11.487 11.631,-30.173 0.146,-41.739 z" />
      <path
         style="fill:#fbb81d"
         inkscape:connector-curvature="0"
         id="path327"
         d="m -159.01,303.036 c -14.755,0 -26.758,-12.003 -26.758,-26.757 0,-14.755 12.003,-26.758 26.758,-26.758 14.755,0 26.759,12.003 26.759,26.758 0,14.754 -12.004,26.757 -26.759,26.757 z m 0,-51.315 c -13.541,0 -24.559,11.018 -24.559,24.559 0,13.541 11.018,24.558 24.559,24.558 13.542,0 24.56,-11.017 24.56,-24.558 0,-13.541 -11.018,-24.559 -24.56,-24.559 z" />
      <path
         style="fill:#ffffff"
         inkscape:connector-curvature="0"
         id="path329"
         d="m -144.331,262.457 c -0.112,-0.293 -2.632,-1.726 -4.387,-2.59 -1.755,-0.863 -4.971,-1.492 -10.819,-1.729 -5.85,-0.235 -13.636,3.011 -14.136,4.242 -1.14,2.812 0.044,24.638 0.389,25.053 0.061,0.073 0.348,0.172 0.792,0.285 -0.1,1.344 -0.193,2.828 0.215,4.113 0.477,1.516 1.783,1.614 2.855,1.348 0.537,-0.135 1.014,-0.359 1.256,-0.951 0.242,-0.59 0.366,-1.364 0.413,-1.972 0.042,-0.571 0.103,-1.141 0.141,-1.699 2.386,0.306 5.168,0.546 7.604,0.546 3.85,0 7.309,-0.141 9.997,-0.357 0.038,0.496 0.092,1 0.13,1.506 0.045,0.606 0.168,1.382 0.403,1.972 0.235,0.593 0.697,0.818 1.218,0.953 1.039,0.27 2.305,0.173 2.763,-1.341 0.354,-1.161 0.31,-2.484 0.224,-3.722 0.602,-0.147 0.961,-0.301 1,-0.454 0.211,-0.831 0.842,-22.829 -0.058,-25.203 z m -19.808,-1.261 c 0.841,-0.165 1.71,-0.202 2.635,-0.262 0.978,-0.063 1.966,-0.032 2.96,-0.032 l 0.23,0 c 0.457,0 2.946,0.104 3.329,0.162 0.841,0.163 1.017,0.187 1.705,0.516 0.307,0.163 0.693,0.396 0.312,0.669 -0.229,0.219 -0.6,0.288 -1.078,0.313 -1.24,0.071 -2.523,0.147 -3.822,0.201 -1.384,0.058 -2.455,0.01 -4.206,-0.035 -0.693,-0.019 -1.378,-0.166 -2.065,-0.328 -0.383,-0.11 -0.994,-0.22 -1.071,-0.549 0,-0.491 0.611,-0.6 1.071,-0.655 z m -1.251,20.378 c -0.416,1.148 -1.67,1.357 -2.609,0.938 -1.774,-0.729 -0.562,-3.413 1.565,-3.025 1.044,0.104 1.358,1.251 1.044,2.087 z m 16.578,0 c -0.418,1.148 -1.671,1.357 -2.611,0.938 -1.774,-0.729 -0.563,-3.413 1.566,-3.025 1.045,0.104 1.356,1.251 1.045,2.087 z m 0.353,-6.687 c -0.285,0.185 -21.189,0.213 -21.45,0 -0.262,-0.214 -0.46,-9.454 -0.175,-9.696 0.287,-0.245 21.25,-0.2 21.787,0 0.536,0.198 0.124,9.511 -0.162,9.696 z" />
    </g>
  </g>
</svg>
