<?xml version="1.0" encoding="UTF-8" standalone="no"?>
<!-- Created with Inkscape (http://www.inkscape.org/) -->

<svg
   xmlns:dc="http://purl.org/dc/elements/1.1/"
   xmlns:cc="http://creativecommons.org/ns#"
   xmlns:rdf="http://www.w3.org/1999/02/22-rdf-syntax-ns#"
   xmlns:svg="http://www.w3.org/2000/svg"
   xmlns="http://www.w3.org/2000/svg"
   xmlns:sodipodi="http://sodipodi.sourceforge.net/DTD/sodipodi-0.dtd"
   xmlns:inkscape="http://www.inkscape.org/namespaces/inkscape"
   width="47.398094mm"
   height="47.405712mm"
   viewBox="0 0 167.946 167.97299"
   id="svg5694"
   version="1.1"
   inkscape:version="0.91 r13725"
   sodipodi:docname="Logo appli mobile.svg"
   inkscape:export-filename="/home/florian/Bureau/Jungle Bus/Logo/Nouveau logo mars 2018/Logo appli mobile.png"
   inkscape:export-xdpi="213"
   inkscape:export-ydpi="213">
  <defs
     id="defs5696" />
  <sodipodi:namedview
     id="base"
     pagecolor="#ffffff"
     bordercolor="#666666"
     borderopacity="1.0"
     inkscape:pageopacity="0.0"
     inkscape:pageshadow="2"
     inkscape:zoom="1.979899"
     inkscape:cx="30.130951"
     inkscape:cy="53.743321"
     inkscape:document-units="px"
     inkscape:current-layer="layer1"
     showgrid="false"
     fit-margin-top="0"
     fit-margin-left="0"
     fit-margin-right="0"
     fit-margin-bottom="0"
     inkscape:window-width="1855"
     inkscape:window-height="1056"
     inkscape:window-x="65"
     inkscape:window-y="24"
     inkscape:window-maximized="1" />
  <metadata
     id="metadata5699">
    <rdf:RDF>
      <cc:Work
         rdf:about="">
        <dc:format>image/svg+xml</dc:format>
        <dc:type
           rdf:resource="http://purl.org/dc/dcmitype/StillImage" />
        <dc:title></dc:title>
      </cc:Work>
    </rdf:RDF>
  </metadata>
  <g
     inkscape:label="Calque 1"
     inkscape:groupmode="layer"
     id="layer1"
     transform="translate(-53.16986,-205.51856)">
    <g
       transform="translate(283.58586,197.54356)"
       id="g43">
      <polygon
         style="fill:#fbb81d"
         id="polygon45"
         points="-151.829,19.17 -125.661,8.121 -114.553,34.315 -125.585,60.489 -114.47,86.699 -125.494,112.895 -151.663,123.948 -177.872,112.834 -204.047,123.866 -230.25,112.749 -219.209,86.574 -230.325,60.363 -219.292,34.19 -230.416,7.975 -204.214,19.087 -178.039,8.055 " />
      <polygon
         style="fill:#0267b1"
         id="polygon47"
         points="-178.087,112.925 -167.209,138.574 -178.25,164.749 -152.047,175.866 -125.872,164.834 -99.663,175.948 -73.494,164.895 -62.47,138.699 -73.585,112.489 -62.553,86.315 -73.661,60.121 -99.829,71.17 -125.498,60.284 -125.585,60.489 -114.47,86.699 -125.494,112.895 -151.663,123.948 -177.872,112.834 " />
      <path
         style="fill:#ffffff"
         inkscape:connector-curvature="0"
         id="path49"
         d="m -114.949,35.246 0.393,-0.931 -0.544,-1.281 -25.851,5.08 -8.469,-19.963 -2.027,0.855 8.108,19.111 -32.434,-4.217 -1.442,-25.495 -0.828,-0.352 -1.363,0.574 1.432,25.29 -21.522,2.887 -3.329,-18.306 -1.392,0.587 -0.799,-0.339 3.228,17.743 -18.29,-4.146 0.783,1.846 -0.227,0.537 17.851,4.046 -4.124,20.878 -24.438,0.485 -0.096,0.227 0.831,1.959 23.479,-0.466 0.79,29.528 -14.596,-6.254 0.612,1.443 -0.433,1.026 14.455,6.194 0,29.588 1.14,0.483 1.06,-0.446 0,-29.727 27.793,-4.117 -3.545,23.626 0.867,-0.365 1.328,0.563 3.597,-23.974 27.72,1.155 -6.93,33.16 0.494,0.209 1.876,-0.793 6.788,-32.483 3.069,0.128 0.059,0.003 24.338,-1.577 0.954,-2.267 -25.317,1.642 -2.793,-0.116 1.801,-22.08 15.675,-5.038 -0.371,-0.876 0.642,-1.522 -15.82,5.085 0.266,-23.783 25.551,-5.024 z m -84.53,3.776 21.668,-2.906 2.554,27.81 -28.312,-4.194 4.09,-20.71 z m 24.402,48.309 -27.949,4.14 -0.792,-29.553 28.741,4.259 0,21.154 z m 30.191,1.061 -28.003,-1.166 0.011,-20.85 29.738,0.555 -1.746,21.461 z m 1.913,-23.66 -30.057,-0.551 -2.569,-28.04 32.895,4.278 -0.269,24.313 z" />
      <path
         style="fill:#0267b1"
         inkscape:connector-curvature="0"
         id="path51"
         d="m -138.066,32.11 c -5.77,-5.811 -13.355,-8.719 -20.945,-8.719 -7.517,0 -15.037,2.856 -20.794,8.572 -10.896,10.82 -11.581,28.03 -2.02,39.658 l -3.94,3.916 c -0.812,-0.733 -1.569,-1.374 -2.174,-1.827 l -28.651,28.622 c 0.941,1.736 1.853,3.104 3.342,4.614 1.489,1.51 2.852,2.427 4.571,3.388 l 28.649,-28.623 0,-0.001 c -0.432,-0.646 -1.067,-1.423 -1.802,-2.241 l 3.923,-3.898 c 5.457,4.561 12.176,6.85 18.897,6.85 7.519,0 15.041,-2.856 20.798,-8.572 11.565,-11.487 11.631,-30.173 0.146,-41.739 z" />
      <path
         style="fill:#fbb81d"
         inkscape:connector-curvature="0"
         id="path53"
         d="m -159.01,79.664 c -14.755,0 -26.758,-12.003 -26.758,-26.757 0,-14.755 12.003,-26.758 26.758,-26.758 14.755,0 26.759,12.003 26.759,26.758 0,14.754 -12.004,26.757 -26.759,26.757 z m 0,-51.315 c -13.541,0 -24.559,11.018 -24.559,24.559 0,13.541 11.018,24.558 24.559,24.558 13.542,0 24.56,-11.017 24.56,-24.558 0,-13.541 -11.018,-24.559 -24.56,-24.559 z" />
      <path
         style="fill:#ffffff"
         inkscape:connector-curvature="0"
         id="path55"
         d="m -144.331,39.085 c -0.112,-0.293 -2.632,-1.726 -4.387,-2.59 -1.755,-0.863 -4.971,-1.492 -10.819,-1.729 -5.85,-0.235 -13.636,3.011 -14.136,4.242 -1.14,2.812 0.044,24.638 0.389,25.053 0.061,0.073 0.348,0.172 0.792,0.285 -0.1,1.344 -0.193,2.828 0.215,4.113 0.477,1.516 1.783,1.614 2.855,1.348 0.537,-0.135 1.014,-0.359 1.256,-0.951 0.242,-0.59 0.366,-1.364 0.413,-1.972 0.042,-0.571 0.103,-1.141 0.141,-1.699 2.386,0.306 5.168,0.546 7.604,0.546 3.85,0 7.309,-0.141 9.997,-0.357 0.038,0.496 0.092,1 0.13,1.506 0.045,0.606 0.168,1.382 0.403,1.972 0.235,0.593 0.697,0.818 1.218,0.953 1.039,0.27 2.305,0.173 2.763,-1.341 0.354,-1.161 0.31,-2.484 0.224,-3.722 0.602,-0.147 0.961,-0.301 1,-0.454 0.211,-0.831 0.842,-22.829 -0.058,-25.203 z m -19.808,-1.261 c 0.841,-0.165 1.71,-0.202 2.635,-0.262 0.978,-0.063 1.966,-0.032 2.96,-0.032 l 0.23,0 c 0.457,0 2.946,0.104 3.329,0.162 0.841,0.163 1.017,0.187 1.705,0.516 0.307,0.163 0.693,0.396 0.312,0.669 -0.229,0.219 -0.6,0.288 -1.078,0.313 -1.24,0.071 -2.523,0.147 -3.822,0.201 -1.384,0.058 -2.455,0.01 -4.206,-0.035 -0.693,-0.019 -1.378,-0.166 -2.065,-0.328 -0.383,-0.11 -0.994,-0.22 -1.071,-0.549 0,-0.491 0.611,-0.6 1.071,-0.655 z m -1.251,20.378 c -0.416,1.148 -1.67,1.357 -2.609,0.938 -1.774,-0.729 -0.562,-3.413 1.565,-3.025 1.044,0.104 1.358,1.251 1.044,2.087 z m 16.578,0 c -0.418,1.148 -1.671,1.357 -2.611,0.938 -1.774,-0.729 -0.563,-3.413 1.566,-3.025 1.045,0.104 1.356,1.251 1.045,2.087 z m 0.353,-6.687 c -0.285,0.185 -21.189,0.213 -21.45,0 -0.262,-0.214 -0.46,-9.454 -0.175,-9.696 0.287,-0.245 21.25,-0.2 21.787,0 0.536,0.198 0.124,9.511 -0.162,9.696 z" />
      <g
         id="g57">
        <path
           style="fill:#ffffff"
           inkscape:connector-curvature="0"
           id="path59"
           d="m -152.511,147.589 c 0,0.44 -0.064,0.807 -0.196,1.098 -0.118,0.284 -0.282,0.515 -0.487,0.683 -0.438,0.357 -0.879,0.532 -1.398,0.532 -10e-4,0 -0.002,0 -0.003,0 -0.359,0 -0.66,-0.083 -0.945,-0.268 -0.273,-0.15 -0.489,-0.337 -0.661,-0.571 l -0.215,-0.292 -2.372,1.718 0.2,0.294 c 0.903,1.325 2.264,2.019 4.042,2.062 l 0.007,0 0.006,0 c 1.28,-0.015 2.419,-0.47 3.381,-1.35 0.983,-0.871 1.496,-2.112 1.523,-3.693 l 0,-10.474 -2.881,0 0,10.261 z" />
        <path
           style="fill:#ffffff"
           inkscape:connector-curvature="0"
           id="path61"
           d="m -139.114,147.15 c -0.012,0.896 -0.251,1.578 -0.714,2.032 -0.479,0.483 -1.073,0.719 -1.818,0.719 -0.743,0 -1.33,-0.234 -1.806,-0.725 -0.471,-0.451 -0.715,-1.133 -0.727,-2.021 l 0,-9.828 -2.881,0 0,10.07 c 0.013,1.638 0.551,2.961 1.592,3.926 1.021,0.995 2.305,1.507 3.817,1.521 l 0.004,0 0.004,0 c 1.54,-0.014 2.835,-0.526 3.847,-1.521 1.01,-0.972 1.536,-2.293 1.563,-3.935 l 0,-10.062 -2.882,0 0,9.824 z" />
        <polygon
           style="fill:#ffffff"
           id="polygon63"
           points="-124.912,146.893 -130.814,137.327 -133.411,137.327 -133.411,152.723 -130.53,152.723 -130.53,143.16 -124.638,152.723 -122.031,152.723 -122.031,137.327 -124.912,137.327 " />
        <path
           style="fill:#ffffff"
           inkscape:connector-curvature="0"
           id="path65"
           d="m -114.303,146.747 2.898,0 0,0.396 c -0.012,0.832 -0.253,1.48 -0.742,1.987 -0.479,0.519 -1.071,0.771 -1.811,0.771 -0.437,0 -0.812,-0.095 -1.143,-0.294 -0.317,-0.16 -0.577,-0.372 -0.789,-0.651 -0.232,-0.263 -0.391,-0.62 -0.472,-1.07 -0.099,-0.488 -0.149,-1.45 -0.149,-2.86 0,-1.411 0.051,-2.381 0.15,-2.888 0.078,-0.428 0.236,-0.779 0.488,-1.065 0.194,-0.259 0.457,-0.479 0.778,-0.653 0.312,-0.168 0.697,-0.258 1.127,-0.27 0.609,0.012 1.109,0.186 1.517,0.522 0.414,0.375 0.692,0.816 0.851,1.348 l 0.078,0.262 2.994,0 -0.08,-0.432 c -0.24,-1.298 -0.827,-2.402 -1.743,-3.285 -0.929,-0.887 -2.14,-1.343 -3.607,-1.357 -1.188,0.015 -2.198,0.314 -2.998,0.89 -0.806,0.562 -1.402,1.217 -1.761,1.922 -0.236,0.393 -0.412,0.905 -0.523,1.525 -0.103,0.603 -0.151,1.741 -0.151,3.481 0,1.712 0.049,2.844 0.151,3.459 0.056,0.344 0.126,0.624 0.218,0.867 0.087,0.205 0.183,0.421 0.293,0.657 0.372,0.73 0.97,1.379 1.769,1.921 0.803,0.577 1.812,0.886 2.999,0.914 l 0.008,0 0.008,0 c 1.542,-0.028 2.84,-0.577 3.861,-1.63 1.009,-1.055 1.534,-2.378 1.561,-3.938 l 0,-3.349 -5.779,0 0,2.82 z" />
        <polygon
           style="fill:#ffffff"
           id="polygon67"
           points="-96.129,149.901 -103.053,149.901 -103.053,137.327 -105.934,137.327 -105.934,152.723 -96.129,152.723 " />
        <polygon
           style="fill:#ffffff"
           id="polygon69"
           points="-84.261,137.327 -94.065,137.327 -94.065,152.723 -84.261,152.723 -84.261,149.901 -91.185,149.901 -91.185,146.314 -85.274,146.314 -85.274,143.614 -91.185,143.614 -91.185,140.149 -84.261,140.149 " />
        <path
           style="fill:#ffffff"
           inkscape:connector-curvature="0"
           id="path71"
           d="m -88.543,109.104 c -0.826,0 -1.601,0.203 -2.316,0.613 -0.498,0.313 -0.882,0.734 -1.146,1.258 -0.112,-0.168 -0.229,-0.321 -0.351,-0.458 -0.261,-0.311 -0.545,-0.555 -0.853,-0.729 -0.574,-0.307 -1.186,-0.462 -1.896,-0.462 -0.002,0 -0.004,0 -0.006,0 -1.274,0 -2.318,0.393 -3.103,1.167 -0.778,0.769 -1.181,1.914 -1.195,3.407 l 0,5.87 15.396,0 0,-6.352 c 0,-1.215 -0.426,-2.245 -1.26,-3.054 -0.805,-0.821 -1.904,-1.245 -3.27,-1.26 z m -8.165,7.786 0,-2.738 c 0.012,-0.682 0.176,-1.18 0.479,-1.473 0.345,-0.315 0.757,-0.47 1.26,-0.47 0.499,0 0.898,0.151 1.235,0.476 0.344,0.301 0.512,0.778 0.512,1.46 l 0,2.745 -3.486,0 z m 9.326,-4.434 c 0.355,0.303 0.534,0.789 0.547,1.479 l 0,2.955 -3.688,0 0,-2.949 c 0.012,-0.688 0.19,-1.189 0.528,-1.485 0.724,-0.623 1.867,-0.642 2.613,0 z" />
        <path
           style="fill:#ffffff"
           inkscape:connector-curvature="0"
           id="path73"
           d="m -89.348,96.23 -10.062,0 0,2.882 9.823,0 c 0.896,0.012 1.578,0.251 2.032,0.714 0.483,0.479 0.719,1.073 0.719,1.818 0,0.743 -0.234,1.33 -0.725,1.806 -0.451,0.471 -1.133,0.715 -2.021,0.727 l -9.828,0 0,2.881 10.069,0 10e-4,0 c 1.638,-0.013 2.961,-0.551 3.926,-1.592 0.995,-1.021 1.507,-2.305 1.521,-3.825 -0.014,-1.54 -0.526,-2.835 -1.521,-3.847 -0.971,-1.01 -2.292,-1.536 -3.934,-1.564 z" />
        <path
           style="fill:#ffffff"
           inkscape:connector-curvature="0"
           id="path75"
           d="m -94.876,93.893 c 1.154,0 2.15,-0.361 2.959,-1.075 0.786,-0.689 1.297,-1.699 1.52,-3.008 0.101,-0.683 0.192,-1.311 0.271,-1.87 0.246,-1.39 1.019,-1.551 1.604,-1.551 0,0 0,0 0.001,0 0.708,0.015 1.653,0.283 1.686,2.44 -0.014,1.465 -0.476,2.744 -1.375,3.803 l -0.237,0.279 2.225,1.88 0.237,-0.269 c 1.389,-1.575 2.093,-3.481 2.093,-5.67 -0.043,-3.47 -1.6,-5.269 -4.634,-5.345 -1.12,0 -2.119,0.345 -2.966,1.024 -0.871,0.694 -1.414,1.767 -1.614,3.192 -0.087,0.669 -0.164,1.196 -0.229,1.576 -0.118,0.619 -0.324,1.066 -0.614,1.331 -0.274,0.255 -0.568,0.38 -0.892,0.38 -0.593,-0.012 -1.021,-0.198 -1.309,-0.57 -0.293,-0.38 -0.437,-0.849 -0.437,-1.426 0.025,-1.201 0.384,-2.318 1.065,-3.32 l 0.21,-0.308 -2.426,-1.593 -0.205,0.277 c -1.012,1.36 -1.546,2.979 -1.587,4.824 0.014,1.559 0.448,2.786 1.288,3.646 0.854,0.898 1.986,1.353 3.366,1.353 z" />
      </g>
    </g>
  </g>
</svg>
